<svg width="73" height="84" viewBox="0 0 73 84" fill="none" xmlns="http://www.w3.org/2000/svg">
<g filter="url(#filter0_di_71_2477)">
<path d="M24.125 53.5V23.75C24.125 20.25 26.47 18.5 29.375 18.5H43.375C46.28 18.5 48.625 20.25 48.625 23.75V53.5H24.125Z" fill="url(#paint0_linear_71_2477)"/>
<path d="M24.625 53V23.75C24.625 22.1179 25.1678 20.9467 25.9995 20.1802C26.8378 19.4075 28.0201 19 29.375 19H43.375C44.7299 19 45.9122 19.4075 46.7505 20.1802C47.5822 20.9467 48.125 22.1179 48.125 23.75V53H24.625Z" stroke="#D43D3D"/>
</g>
<path d="M51.25 54.8125H21.5C20.7825 54.8125 20.1875 54.2175 20.1875 53.5C20.1875 52.7825 20.7825 52.1875 21.5 52.1875H51.25C51.9675 52.1875 52.5625 52.7825 52.5625 53.5C52.5625 54.2175 51.9675 54.8125 51.25 54.8125Z" fill="#F4F4F4"/>
<path d="M31.8075 32.5H40.96C42.78 32.5 44.2675 31.625 44.2675 29.1925V27.04C44.25 24.625 42.7625 23.75 40.9425 23.75H31.79C29.9875 23.75 28.5 24.625 28.5 27.0575V29.21C28.5 31.625 29.9875 32.5 31.8075 32.5Z" fill="#F4F4F4"/>
<path d="M34.625 39.0625H29.375C28.6575 39.0625 28.0625 38.4675 28.0625 37.75C28.0625 37.0325 28.6575 36.4375 29.375 36.4375H34.625C35.3425 36.4375 35.9375 37.0325 35.9375 37.75C35.9375 38.4675 35.3425 39.0625 34.625 39.0625Z" fill="#F4F4F4"/>
<path d="M57.8125 32.4995V42.9995C57.8125 43.717 57.235 44.312 56.5 44.312L48.625 44.3295V41.7045L55.1875 41.687V33.3045L52.405 31.922C51.7575 31.607 51.495 30.8195 51.8275 30.1545C52.1425 29.507 52.9475 29.2621 53.595 29.5771L57.095 31.3271C57.5325 31.5546 57.8125 32.0095 57.8125 32.4995Z" fill="#F4F4F4"/>
<defs>
<filter id="filter0_di_71_2477" x="0.125" y="0.5" width="72.5" height="83" filterUnits="userSpaceOnUse" color-interpolation-filters="sRGB">
<feFlood flood-opacity="0" result="BackgroundImageFix"/>
<feColorMatrix in="SourceAlpha" type="matrix" values="0 0 0 0 0 0 0 0 0 0 0 0 0 0 0 0 0 0 127 0" result="hardAlpha"/>
<feMorphology radius="6" operator="dilate" in="SourceAlpha" result="effect1_dropShadow_71_2477"/>
<feOffset dy="6"/>
<feGaussianBlur stdDeviation="9"/>
<feComposite in2="hardAlpha" operator="out"/>
<feColorMatrix type="matrix" values="0 0 0 0 1 0 0 0 0 0.201961 0 0 0 0 0.129412 0 0 0 0.3 0"/>
<feBlend mode="normal" in2="BackgroundImageFix" result="effect1_dropShadow_71_2477"/>
<feBlend mode="normal" in="SourceGraphic" in2="effect1_dropShadow_71_2477" result="shape"/>
<feColorMatrix in="SourceAlpha" type="matrix" values="0 0 0 0 0 0 0 0 0 0 0 0 0 0 0 0 0 0 127 0" result="hardAlpha"/>
<feOffset dy="-14"/>
<feGaussianBlur stdDeviation="12"/>
<feComposite in2="hardAlpha" operator="arithmetic" k2="-1" k3="1"/>
<feColorMatrix type="matrix" values="0 0 0 0 0.181559 0 0 0 0 0.0131412 0 0 0 0 0.0131412 0 0 0 0.4 0"/>
<feBlend mode="normal" in2="shape" result="effect2_innerShadow_71_2477"/>
</filter>
<linearGradient id="paint0_linear_71_2477" x1="36.375" y1="18.5" x2="36.375" y2="53.5" gradientUnits="userSpaceOnUse">
<stop stop-color="#DB1414"/>
<stop offset="1" stop-color="#851111"/>
</linearGradient>
</defs>
</svg>
