<svg width="42" height="42" viewBox="0 0 42 42" fill="none" xmlns="http://www.w3.org/2000/svg">
<g filter="url(#filter0_di_604_730)">
<path d="M6.125 38.5V8.75C6.125 5.25 8.47 3.5 11.375 3.5H25.375C28.28 3.5 30.625 5.25 30.625 8.75V38.5H6.125Z" fill="url(#paint0_linear_604_730)"/>
<path d="M11.375 4H25.375C26.7299 4 27.9126 4.40702 28.751 5.17969C29.5826 5.9462 30.125 7.1179 30.125 8.75V38H6.625V8.75C6.625 7.1179 7.16736 5.9462 7.99902 5.17969C8.83737 4.40702 10.0201 4 11.375 4Z" stroke="#D43D3D"/>
</g>
<path d="M33.25 39.8125H3.5C2.7825 39.8125 2.1875 39.2175 2.1875 38.5C2.1875 37.7825 2.7825 37.1875 3.5 37.1875H33.25C33.9675 37.1875 34.5625 37.7825 34.5625 38.5C34.5625 39.2175 33.9675 39.8125 33.25 39.8125Z" fill="#F4F4F4"/>
<path d="M13.8075 17.5H22.96C24.78 17.5 26.2675 16.625 26.2675 14.1925V12.04C26.25 9.625 24.7625 8.75 22.9425 8.75H13.79C11.9875 8.75 10.5 9.625 10.5 12.0575V14.21C10.5 16.625 11.9875 17.5 13.8075 17.5Z" fill="#F4F4F4"/>
<path d="M16.625 24.0625H11.375C10.6575 24.0625 10.0625 23.4675 10.0625 22.75C10.0625 22.0325 10.6575 21.4375 11.375 21.4375H16.625C17.3425 21.4375 17.9375 22.0325 17.9375 22.75C17.9375 23.4675 17.3425 24.0625 16.625 24.0625Z" fill="#F4F4F4"/>
<path d="M39.8125 17.4995V27.9995C39.8125 28.717 39.235 29.312 38.5 29.312L30.625 29.3295V26.7045L37.1875 26.687V18.3045L34.405 16.922C33.7575 16.607 33.495 15.8195 33.8275 15.1545C34.1425 14.507 34.9475 14.2621 35.595 14.5771L39.095 16.3271C39.5325 16.5546 39.8125 17.0095 39.8125 17.4995Z" fill="#F4F4F4"/>
<defs>
<filter id="filter0_di_604_730" x="-17.875" y="-14.5" width="72.5" height="83" filterUnits="userSpaceOnUse" color-interpolation-filters="sRGB">
<feFlood flood-opacity="0" result="BackgroundImageFix"/>
<feColorMatrix in="SourceAlpha" type="matrix" values="0 0 0 0 0 0 0 0 0 0 0 0 0 0 0 0 0 0 127 0" result="hardAlpha"/>
<feMorphology radius="6" operator="dilate" in="SourceAlpha" result="effect1_dropShadow_604_730"/>
<feOffset dy="6"/>
<feGaussianBlur stdDeviation="9"/>
<feComposite in2="hardAlpha" operator="out"/>
<feColorMatrix type="matrix" values="0 0 0 0 1 0 0 0 0 0.201961 0 0 0 0 0.129412 0 0 0 0.3 0"/>
<feBlend mode="normal" in2="BackgroundImageFix" result="effect1_dropShadow_604_730"/>
<feBlend mode="normal" in="SourceGraphic" in2="effect1_dropShadow_604_730" result="shape"/>
<feColorMatrix in="SourceAlpha" type="matrix" values="0 0 0 0 0 0 0 0 0 0 0 0 0 0 0 0 0 0 127 0" result="hardAlpha"/>
<feOffset dy="-14"/>
<feGaussianBlur stdDeviation="12"/>
<feComposite in2="hardAlpha" operator="arithmetic" k2="-1" k3="1"/>
<feColorMatrix type="matrix" values="0 0 0 0 0.181559 0 0 0 0 0.0131412 0 0 0 0 0.0131412 0 0 0 0.4 0"/>
<feBlend mode="normal" in2="shape" result="effect2_innerShadow_604_730"/>
</filter>
<linearGradient id="paint0_linear_604_730" x1="18.375" y1="3.5" x2="18.375" y2="38.5" gradientUnits="userSpaceOnUse">
<stop stop-color="#DB1414"/>
<stop offset="1" stop-color="#851111"/>
</linearGradient>
</defs>
</svg>
