<svg width="44" height="44" viewBox="0 0 44 44" fill="none" xmlns="http://www.w3.org/2000/svg">
<g filter="url(#filter0_i_593_2224)">
<path d="M22 1.65625C10.4017 1.65625 1 10.7642 1 22C1 33.2358 10.4017 42.3438 22 42.3438C33.5983 42.3438 43 33.2358 43 22C43 10.7642 33.5983 1.65625 22 1.65625ZM28.9681 30.9906C28.6379 31.3089 28.2915 31.6428 28.0104 31.9159C27.7572 32.162 27.5785 32.4655 27.4879 32.7945C27.3601 33.2588 27.2568 33.728 27.084 34.1784L25.6115 38.0215C24.4463 38.2676 23.2405 38.4062 22 38.4062V36.1602C22.1431 35.125 21.3531 33.1858 20.0837 31.9561C19.5757 31.4639 19.2903 30.7962 19.2903 30.0998V27.4739C19.2903 26.5191 18.7594 25.6414 17.8965 25.1795C16.6797 24.5274 14.9489 23.616 13.7634 23.0377C12.7913 22.5636 11.8921 21.9598 11.0834 21.2535L11.0156 21.1945C10.4374 20.6888 9.92392 20.1175 9.48637 19.4931C8.6921 18.3636 7.39823 16.5055 6.55738 15.298C8.29073 11.5656 11.4145 8.5682 15.2961 6.93988L17.3292 7.92508C18.2302 8.36148 19.2903 7.72738 19.2903 6.75121V5.82426C19.9669 5.71844 20.6553 5.65117 21.3556 5.62574L23.752 7.94723C24.2812 8.45992 24.2812 9.2909 23.752 9.80359L23.3548 10.1875L22.4793 11.0357C22.2151 11.2916 22.2151 11.7075 22.4793 11.9635L22.8764 12.3482C23.1406 12.6041 23.1406 13.02 22.8764 13.276L22.199 13.9322C22.136 13.9931 22.0613 14.0415 21.9791 14.0744C21.8968 14.1073 21.8087 14.1242 21.7197 14.1242H20.9585C20.7823 14.1242 20.613 14.1906 20.486 14.3104L19.646 15.102C19.543 15.1991 19.4746 15.3255 19.4505 15.4627C19.4265 15.6 19.4481 15.7411 19.5122 15.8657L20.8323 18.4243C21.0575 18.8607 20.7298 19.3742 20.2269 19.3742H19.7493C19.5858 19.3742 19.4283 19.3168 19.3056 19.2134L18.5198 18.5522C18.3419 18.4028 18.127 18.3008 17.8961 18.2562C17.6653 18.2116 17.4264 18.226 17.203 18.2979L14.5636 19.1502C14.3621 19.2153 14.1869 19.3402 14.0627 19.5072C13.9385 19.6741 13.8717 19.8747 13.8718 20.0805C13.8718 20.4521 14.0886 20.7909 14.4315 20.9574L15.3698 21.4118C16.1666 21.7982 17.0455 21.9992 17.9363 21.9992C18.8271 21.9992 19.8492 24.2378 20.646 24.6242H26.2982C27.0171 24.6242 27.7056 24.9006 28.2145 25.3928L29.3737 26.5158C29.6135 26.7482 29.8037 27.0241 29.9335 27.3277C30.0632 27.6313 30.13 27.9566 30.1299 28.2852C30.1297 28.7881 30.027 29.2859 29.8276 29.7502C29.6282 30.2145 29.3361 30.636 28.9681 30.9906ZM36.3105 23.4971C35.8202 23.3781 35.3926 23.0869 35.1123 22.6792L33.5898 20.4668C33.367 20.1436 33.2481 19.7637 33.2481 19.375C33.2481 18.9863 33.367 18.6064 33.5898 18.2832L35.2486 15.8731C35.4451 15.5884 35.7144 15.3571 36.0311 15.2045L37.1302 14.6721C38.275 16.8804 38.9355 19.3643 38.9355 22C38.9355 22.7112 38.8728 23.4077 38.7814 24.0951L36.3105 23.4971Z" fill="url(#paint0_linear_593_2224)"/>
</g>
<path d="M22 1.15625C33.8593 1.15625 43.5 10.4732 43.5 22C43.5 33.5268 33.8593 42.8438 22 42.8438C10.1407 42.8438 0.5 33.5268 0.5 22C0.5 10.4732 10.1407 1.15625 22 1.15625ZM21.1641 6.13574C20.7007 6.15832 20.2427 6.19857 19.79 6.25781V6.75098C19.79 8.0789 18.4114 8.90777 17.2256 8.42578L17.1113 8.375L15.2842 7.48926C11.7004 9.04976 8.80447 11.818 7.13379 15.25C7.97158 16.4531 9.15249 18.1484 9.89551 19.2051V19.2061L10.0547 19.4258C10.4325 19.9316 10.8645 20.3982 11.3438 20.8174L11.4121 20.877L11.708 21.127C12.406 21.6982 13.1681 22.1907 13.9824 22.5879L14.9639 23.0781C16.0134 23.6118 17.2188 24.249 18.1318 24.7383H18.1328C19.1542 25.285 19.7899 26.3301 19.79 27.4736V30.0996C19.79 30.6583 20.0192 31.197 20.4316 31.5967L20.6826 31.8555C21.2535 32.4754 21.7141 33.2142 22.0293 33.9297C22.3718 34.7072 22.5701 35.5248 22.5 36.168V37.8975C23.4354 37.8686 24.3504 37.7587 25.2432 37.584L26.6172 33.999L26.7266 33.6836C26.8265 33.3649 26.9031 33.0354 27.0059 32.6621L27.0537 32.5078C27.1778 32.1522 27.3852 31.8268 27.6621 31.5576L28.6211 30.6309L28.7383 30.5117C29.0039 30.2292 29.217 29.9047 29.3682 29.5527C29.5409 29.1505 29.6297 28.7198 29.6299 28.2852L29.6201 28.0898C29.6004 27.896 29.551 27.7056 29.4736 27.5244C29.3961 27.3431 29.2909 27.1737 29.1621 27.0215L29.0254 26.875L27.8662 25.752V25.751C27.4521 25.3509 26.8886 25.124 26.2979 25.124H20.5312L20.4277 25.0742C20.1233 24.9266 19.8511 24.6367 19.6289 24.3721C19.3978 24.0968 19.1516 23.76 18.9297 23.4707C18.6969 23.1673 18.4833 22.9058 18.2842 22.7217C18.0697 22.5235 17.9602 22.4992 17.9365 22.499C16.9707 22.499 16.0167 22.2809 15.1514 21.8613V21.8623L14.2139 21.4072H14.2129C13.736 21.1756 13.4144 20.7131 13.376 20.1865L13.3721 20.0801C13.3721 19.7658 13.4738 19.461 13.6611 19.209C13.8485 18.957 14.1116 18.7713 14.4102 18.6748L17.0498 17.8223L17.1641 17.7891C17.434 17.7206 17.7169 17.7126 17.9912 17.7656C18.3045 17.8262 18.598 17.9641 18.8418 18.1689V18.1699L19.6279 18.8311L19.6826 18.8623C19.7032 18.8698 19.7256 18.874 19.749 18.874H20.2266C20.2999 18.874 20.352 18.8392 20.3809 18.7939C20.4021 18.7607 20.4096 18.7254 20.4014 18.6895L20.3877 18.6533L19.0674 16.0947C18.9537 15.8737 18.915 15.6213 18.958 15.376C19.001 15.131 19.1229 14.908 19.3027 14.7383L20.1426 13.9463L20.2295 13.873C20.4378 13.7116 20.6944 13.6241 20.958 13.624H21.7197L21.793 13.6104C21.8157 13.6013 21.8358 13.5885 21.8516 13.5732L22.5283 12.917L22.5635 12.8672C22.5787 12.8318 22.5787 12.7922 22.5635 12.7568L22.5283 12.707L22.1318 12.3223C21.6648 11.8699 21.6648 11.1292 22.1318 10.6768L23.0068 9.82812H23.0078L23.4043 9.44434L23.4619 9.38281C23.7114 9.08686 23.7114 8.66415 23.4619 8.36816L23.4043 8.30664L21.1641 6.13574ZM36.249 15.6543L36.248 15.6553C36.0095 15.7702 35.8073 15.9441 35.6602 16.1572L35.6592 16.1562L34.002 18.5664V18.5674C33.8361 18.808 33.748 19.0888 33.748 19.375C33.748 19.6255 33.8155 19.8718 33.9434 20.0908L34.002 20.1826V20.1836L35.5244 22.3955L35.6074 22.5059C35.8139 22.7528 36.1015 22.9314 36.4287 23.0107H36.4277L38.3506 23.4766C38.4023 22.9866 38.4355 22.4958 38.4355 22C38.4355 19.6202 37.8785 17.3674 36.9023 15.3369L36.249 15.6543Z" stroke="#D43D3D"/>
<path d="M28.0104 31.9162C28.2915 31.643 28.6379 31.3091 28.9681 30.9909C29.3361 30.6363 29.6282 30.2147 29.8276 29.7504C30.0269 29.2862 30.1297 28.7883 30.1299 28.2855C30.1299 27.9569 30.0632 27.6315 29.9335 27.3279C29.8037 27.0243 29.6135 26.7484 29.3737 26.5161L28.2145 25.393C27.7056 24.9009 27.0171 24.6244 26.2982 24.6244H20.646C19.8492 24.238 18.8271 21.9994 17.9363 21.9994C17.0455 21.9994 16.1666 21.7984 15.3698 21.4121L14.4315 20.9576C14.0886 20.7911 13.8718 20.4523 13.8718 20.0807C13.8717 19.8749 13.9385 19.6743 14.0627 19.5074C14.1869 19.3404 14.3621 19.2156 14.5636 19.1505L17.203 18.2982C17.4264 18.2262 17.6653 18.2118 17.8961 18.2564C18.127 18.301 18.3419 18.403 18.5198 18.5525L19.3056 19.2136C19.4283 19.317 19.5858 19.3744 19.7493 19.3744H20.2268C20.7298 19.3744 21.0575 18.8609 20.8323 18.4245L19.5122 15.8659C19.4481 15.7413 19.4265 15.6002 19.4505 15.463C19.4746 15.3257 19.543 15.1994 19.646 15.1022L20.486 14.3106C20.613 14.1909 20.7823 14.1244 20.9585 14.1244H21.7197C21.8087 14.1245 21.8968 14.1076 21.9791 14.0746C22.0613 14.0417 22.136 13.9934 22.199 13.9325L22.8764 13.2762C23.1406 13.0203 23.1406 12.6044 22.8764 12.3484L22.4793 11.9637C22.2151 11.7078 22.2151 11.2919 22.4793 11.0359L23.3548 10.1877L23.752 9.80383C24.2812 9.29113 24.2812 8.46016 23.752 7.94746L21.3556 5.62598C20.6553 5.65141 19.9669 5.71867 19.2903 5.82449V6.75145C19.2903 7.72762 18.2302 8.36172 17.3292 7.92531L15.2961 6.94012C11.4145 8.56844 8.29072 11.5659 6.55737 15.2983C7.39822 16.5058 8.69209 18.3638 9.48637 19.4934C9.92391 20.1178 10.4374 20.689 11.0156 21.1947L11.0834 21.2537C11.8921 21.96 12.7913 22.5638 13.7634 23.0379C14.9489 23.6162 16.6797 24.5276 17.8965 25.1798C18.7594 25.6416 19.2903 26.5193 19.2903 27.4742V30.1C19.2903 30.7964 19.5757 31.4642 20.0837 31.9564C21.3531 33.186 22.1431 35.1252 22 36.1605V38.4065C23.2405 38.4065 24.4463 38.2678 25.6115 38.0218L27.084 34.1786C27.2568 33.7282 27.3601 33.259 27.4879 32.7947C27.5785 32.4658 27.7572 32.1623 28.0104 31.9162Z" fill="#F7F7F7"/>
<path d="M35.1123 22.6795C35.3926 23.0871 35.8202 23.3784 36.3105 23.4973L38.7814 24.0953C38.8728 23.4079 38.9355 22.7114 38.9355 22.0002C38.9355 19.3646 38.275 16.8807 37.1302 14.6724L36.031 15.2048C35.7144 15.3573 35.4451 15.5887 35.2486 15.8733L33.5898 18.2834C33.367 18.6066 33.2481 18.9866 33.2481 19.3752C33.2481 19.7639 33.367 20.1438 33.5898 20.4671L35.1123 22.6795Z" fill="#F7F7F7"/>
<defs>
<filter id="filter0_i_593_2224" x="0" y="-13.3438" width="44" height="56.6875" filterUnits="userSpaceOnUse" color-interpolation-filters="sRGB">
<feFlood flood-opacity="0" result="BackgroundImageFix"/>
<feBlend mode="normal" in="SourceGraphic" in2="BackgroundImageFix" result="shape"/>
<feColorMatrix in="SourceAlpha" type="matrix" values="0 0 0 0 0 0 0 0 0 0 0 0 0 0 0 0 0 0 127 0" result="hardAlpha"/>
<feOffset dy="-14"/>
<feGaussianBlur stdDeviation="12"/>
<feComposite in2="hardAlpha" operator="arithmetic" k2="-1" k3="1"/>
<feColorMatrix type="matrix" values="0 0 0 0 0.181559 0 0 0 0 0.0131412 0 0 0 0 0.0131412 0 0 0 0.4 0"/>
<feBlend mode="normal" in2="shape" result="effect1_innerShadow_593_2224"/>
</filter>
<linearGradient id="paint0_linear_593_2224" x1="22" y1="1.65625" x2="22" y2="42.3437" gradientUnits="userSpaceOnUse">
<stop stop-color="#DB1414"/>
<stop offset="1" stop-color="#851111"/>
</linearGradient>
</defs>
</svg>
