<svg width="42" height="42" viewBox="0 0 42 42" fill="none" xmlns="http://www.w3.org/2000/svg">
<g filter="url(#filter0_i_588_2037)">
<path d="M9.26259 18.7374C8.9344 19.0656 8.75003 19.5107 8.75003 19.9749V22.75C8.75003 24.991 7.85979 27.1402 6.27516 28.7249L4.74253 30.2575C4.41659 30.5854 4.23364 31.0289 4.23364 31.4913C4.23364 31.9536 4.41659 32.3971 4.74253 32.725L9.25753 37.2575C9.42022 37.4215 9.61377 37.5517 9.82702 37.6406C10.0403 37.7294 10.269 37.7751 10.5 37.7751C10.7311 37.7751 10.9598 37.7294 11.173 37.6406C11.3863 37.5517 11.5798 37.4215 11.7425 37.2575L15.7353 33.2647C17.9857 31.0143 21.038 29.75 24.2206 29.75H26.25C26.7142 29.75 27.1593 29.5656 27.4875 29.2374C27.8157 28.9093 28 28.4641 28 28C28 27.0335 28.7835 26.25 29.75 26.25C30.2142 26.25 30.6593 26.0656 30.9875 25.7374C31.3157 25.4092 31.5 24.9641 31.5 24.5C31.5 23.5335 32.2835 22.75 33.25 22.75C33.7142 22.75 34.1593 22.5656 34.4875 22.2374C34.8157 21.9092 35 21.4641 35 21C35 20.0335 34.2165 19.25 33.25 19.25H24.5C23.5335 19.25 22.75 20.0335 22.75 21C22.75 21.9283 22.3813 22.8185 21.7249 23.4749C21.0685 24.1313 20.1783 24.5 19.25 24.5H15.75C14.8218 24.5 13.9315 24.1313 13.2752 23.4749C12.6188 22.8185 12.25 21.9283 12.25 21V19.9749C12.25 18.4158 10.365 17.635 9.26259 18.7374Z" fill="url(#paint0_linear_588_2037)"/>
</g>
<path d="M9.61646 19.0908C10.4039 18.3038 11.75 18.8613 11.7502 19.9746V21C11.7502 21.9944 12.1202 22.9508 12.7844 23.6846L12.9211 23.8281C13.6713 24.5783 14.6894 25 15.7502 25H19.2502C20.2448 24.9999 21.2011 24.6293 21.9348 23.9648L22.0784 23.8281C22.8284 23.078 23.2502 22.0608 23.2502 21C23.2502 20.3096 23.8099 19.75 24.5002 19.75H33.2502C33.9405 19.7501 34.5002 20.3097 34.5002 21C34.5002 21.3315 34.3684 21.6494 34.134 21.8838C33.8997 22.1182 33.5817 22.2499 33.2502 22.25C32.0076 22.25 31.0002 23.2574 31.0002 24.5C31.0002 24.8315 30.8684 25.1494 30.634 25.3838C30.3997 25.6182 30.0817 25.7499 29.7502 25.75C28.5076 25.75 27.5002 26.7574 27.5002 28C27.5002 28.3315 27.3684 28.6494 27.134 28.8838C26.8997 29.1182 26.5817 29.2499 26.2502 29.25H24.2209C21.0093 29.25 17.9246 30.4858 15.6038 32.6943L15.3821 32.9111L11.3879 36.9053C11.2718 37.0224 11.133 37.1153 10.9807 37.1787C10.8285 37.2421 10.6652 37.2754 10.5002 37.2754C10.3353 37.2754 10.172 37.2421 10.0198 37.1787C9.90538 37.1311 9.79851 37.067 9.70337 36.9883L9.61255 36.9053L9.61157 36.9043L5.09692 32.3721C4.86431 32.1379 4.73364 31.8213 4.73364 31.4912L4.7395 31.3682C4.76764 31.0837 4.89297 30.8161 5.09595 30.6113L6.62915 29.0781C8.30732 27.3998 9.25024 25.1234 9.25024 22.75V19.9746C9.25031 19.6845 9.35115 19.405 9.53345 19.1826L9.61646 19.0908Z" stroke="#D43D3D"/>
<g filter="url(#filter1_i_588_2037)">
<path d="M19.5188 10.4997H19.25C18.3217 10.4997 17.4315 10.8684 16.7751 11.5248C16.1187 12.1812 15.75 13.0714 15.75 13.9997V19.2497C15.75 19.7138 15.9344 20.1589 16.2626 20.4871C16.5908 20.8153 17.0359 20.9997 17.5 20.9997C17.9641 20.9997 18.4092 20.8153 18.7374 20.4871C19.0656 20.1589 19.25 19.7138 19.25 19.2497C19.25 17.3167 20.817 15.7497 22.75 15.7497H29.1406C31.7712 15.7497 34.2934 14.7017 36.1495 12.8375L37.2575 11.7247C37.5834 11.3968 37.7664 10.9533 37.7664 10.4909C37.7664 10.0286 37.5834 9.58506 37.2575 9.25718L32.7425 4.72468C32.5798 4.56065 32.3863 4.43046 32.173 4.34162C31.9598 4.25277 31.731 4.20703 31.5 4.20703C31.269 4.20703 31.0402 4.25277 30.827 4.34162C30.6137 4.43046 30.4202 4.56065 30.2575 4.72468L28.0169 6.97207C25.7654 9.23039 22.7077 10.4997 19.5188 10.4997Z" fill="#F4F4F4"/>
</g>
<path d="M31.5 4.80664C31.6138 4.80664 31.7265 4.82439 31.835 4.85742L31.9424 4.89551C32.0473 4.93925 32.1451 4.99817 32.2324 5.07031L32.3164 5.14746L32.3174 5.14844L36.832 9.68066C37.046 9.8961 37.166 10.1875 37.166 10.4912C37.166 10.757 37.0747 11.0136 36.9082 11.2178L36.832 11.3018L35.7246 12.4141C33.9812 14.1651 31.6116 15.1494 29.1406 15.1494H22.75C20.4856 15.1494 18.6504 16.9856 18.6504 19.25C18.6503 19.5167 18.5572 19.774 18.3896 19.9785L18.3135 20.0625C18.0978 20.2782 17.805 20.3994 17.5 20.3994C17.2333 20.3994 16.9761 20.3071 16.7715 20.1396L16.6865 20.0625C16.4711 19.8469 16.3497 19.5547 16.3496 19.25V14C16.3496 13.2309 16.6555 12.4931 17.1992 11.9492C17.7431 11.4054 18.4809 11.0996 19.25 11.0996H19.5186C22.7622 11.0996 25.877 9.84914 28.2178 7.61523L28.4414 7.39551L30.6826 5.14844L30.6836 5.14746C30.7637 5.06665 30.8552 4.99807 30.9551 4.94434L31.0576 4.89551C31.1978 4.83712 31.3482 4.80664 31.5 4.80664Z" stroke="#E0E0E0" stroke-width="1.2"/>
<defs>
<filter id="filter0_i_588_2037" x="4.23364" y="4.22168" width="30.7664" height="33.5537" filterUnits="userSpaceOnUse" color-interpolation-filters="sRGB">
<feFlood flood-opacity="0" result="BackgroundImageFix"/>
<feBlend mode="normal" in="SourceGraphic" in2="BackgroundImageFix" result="shape"/>
<feColorMatrix in="SourceAlpha" type="matrix" values="0 0 0 0 0 0 0 0 0 0 0 0 0 0 0 0 0 0 127 0" result="hardAlpha"/>
<feOffset dy="-14"/>
<feGaussianBlur stdDeviation="12"/>
<feComposite in2="hardAlpha" operator="arithmetic" k2="-1" k3="1"/>
<feColorMatrix type="matrix" values="0 0 0 0 0.181559 0 0 0 0 0.0131412 0 0 0 0 0.0131412 0 0 0 0.4 0"/>
<feBlend mode="normal" in2="shape" result="effect1_innerShadow_588_2037"/>
</filter>
<filter id="filter1_i_588_2037" x="15.75" y="-10.193" width="22.0164" height="31.193" filterUnits="userSpaceOnUse" color-interpolation-filters="sRGB">
<feFlood flood-opacity="0" result="BackgroundImageFix"/>
<feBlend mode="normal" in="SourceGraphic" in2="BackgroundImageFix" result="shape"/>
<feColorMatrix in="SourceAlpha" type="matrix" values="0 0 0 0 0 0 0 0 0 0 0 0 0 0 0 0 0 0 127 0" result="hardAlpha"/>
<feOffset dy="-14.4"/>
<feGaussianBlur stdDeviation="12"/>
<feComposite in2="hardAlpha" operator="arithmetic" k2="-1" k3="1"/>
<feColorMatrix type="matrix" values="0 0 0 0 1 0 0 0 0 1 0 0 0 0 1 0 0 0 0.4 0"/>
<feBlend mode="normal" in2="shape" result="effect1_innerShadow_588_2037"/>
</filter>
<linearGradient id="paint0_linear_588_2037" x1="19.6168" y1="15.75" x2="19.6168" y2="37.7751" gradientUnits="userSpaceOnUse">
<stop stop-color="#DB1414"/>
<stop offset="1" stop-color="#851111"/>
</linearGradient>
</defs>
</svg>
