<svg width="82" height="82" viewBox="0 0 82 82" fill="none" xmlns="http://www.w3.org/2000/svg">
<g filter="url(#filter0_di_71_2485)">
<path d="M29.2626 32.7374C28.9344 33.0656 28.75 33.5107 28.75 33.9749V36.75C28.75 38.991 27.8598 41.1402 26.2752 42.7249L24.7425 44.2575C24.4166 44.5854 24.2336 45.0289 24.2336 45.4913C24.2336 45.9536 24.4166 46.3971 24.7425 46.725L29.2575 51.2575C29.4202 51.4215 29.6138 51.5517 29.827 51.6406C30.0403 51.7294 30.269 51.7751 30.5 51.7751C30.7311 51.7751 30.9598 51.7294 31.173 51.6406C31.3863 51.5517 31.5798 51.4215 31.7425 51.2575L35.7353 47.2647C37.9857 45.0143 41.038 43.75 44.2206 43.75H46.25C46.7142 43.75 47.1593 43.5656 47.4875 43.2374C47.8157 42.9093 48 42.4641 48 42C48 41.0335 48.7835 40.25 49.75 40.25C50.2142 40.25 50.6593 40.0656 50.9875 39.7374C51.3157 39.4092 51.5 38.9641 51.5 38.5C51.5 37.5335 52.2835 36.75 53.25 36.75C53.7142 36.75 54.1593 36.5656 54.4875 36.2374C54.8157 35.9092 55 35.4641 55 35C55 34.0335 54.2165 33.25 53.25 33.25H44.5C43.5335 33.25 42.75 34.0335 42.75 35C42.75 35.9283 42.3813 36.8185 41.7249 37.4749C41.0685 38.1313 40.1783 38.5 39.25 38.5H35.75C34.8218 38.5 33.9315 38.1313 33.2752 37.4749C32.6188 36.8185 32.25 35.9283 32.25 35V33.9749C32.25 32.4158 30.365 31.635 29.2626 32.7374Z" fill="url(#paint0_linear_71_2485)"/>
<path d="M29.6118 50.9046L29.6125 50.9054C29.7287 51.0226 29.867 51.1156 30.0193 51.179C30.1716 51.2425 30.335 51.2751 30.5 51.2751C30.665 51.2751 30.8284 51.2425 30.9808 51.179C31.1331 51.1156 31.2713 51.0226 31.3875 50.9054L31.389 50.9039L35.3818 46.9112C37.726 44.567 40.9054 43.25 44.2206 43.25H46.25C46.5816 43.25 46.8995 43.1183 47.1339 42.8839C47.3683 42.6495 47.5 42.3315 47.5 42C47.5 40.7574 48.5074 39.75 49.75 39.75C50.0815 39.75 50.3995 39.6183 50.6339 39.3839C50.8683 39.1495 51 38.8315 51 38.5C51 37.2574 52.0074 36.25 53.25 36.25C53.5816 36.25 53.8995 36.1183 54.1339 35.8839C54.3683 35.6495 54.5 35.3315 54.5 35C54.5 34.3096 53.9404 33.75 53.25 33.75H44.5C43.8097 33.75 43.25 34.3096 43.25 35C43.25 36.0609 42.8286 37.0783 42.0785 37.8284C41.3283 38.5786 40.3109 39 39.25 39H35.75C34.6892 39 33.6717 38.5786 32.9216 37.8284C32.1715 37.0783 31.75 36.0609 31.75 35V33.9749C31.75 32.8612 30.4036 32.3035 29.6161 33.091C29.3817 33.3254 29.25 33.6434 29.25 33.9749V36.75C29.25 39.1236 28.3071 41.4 26.6287 43.0784L25.0971 44.61C25.097 44.6102 25.0968 44.6103 25.0966 44.6105C24.8641 44.8447 24.7336 45.1613 24.7336 45.4913C24.7336 45.8213 24.8642 46.138 25.0968 46.3721L29.6118 50.9046ZM29.6118 50.9046L25.0971 46.3725L29.6118 50.9046Z" stroke="#D43D3D"/>
</g>
<g filter="url(#filter1_di_71_2485)">
<path d="M39.5188 24.4997H39.25C38.3217 24.4997 37.4315 24.8684 36.7751 25.5248C36.1187 26.1812 35.75 27.0714 35.75 27.9997V33.2497C35.75 33.7138 35.9344 34.1589 36.2626 34.4871C36.5908 34.8153 37.0359 34.9997 37.5 34.9997C37.9641 34.9997 38.4092 34.8153 38.7374 34.4871C39.0656 34.1589 39.25 33.7138 39.25 33.2497C39.25 31.3167 40.817 29.7497 42.75 29.7497H49.1406C51.7712 29.7497 54.2934 28.7017 56.1495 26.8375L57.2575 25.7247C57.5834 25.3968 57.7664 24.9533 57.7664 24.4909C57.7664 24.0286 57.5834 23.5851 57.2575 23.2572L52.7425 18.7247C52.5798 18.5607 52.3863 18.4305 52.173 18.3416C51.9598 18.2528 51.731 18.207 51.5 18.207C51.269 18.207 51.0402 18.2528 50.827 18.3416C50.6137 18.4305 50.4202 18.5607 50.2575 18.7247L48.0169 20.9721C45.7654 23.2304 42.7077 24.4997 39.5188 24.4997Z" fill="#F4F4F4"/>
<path d="M52.3165 19.1472L52.3174 19.1481L56.832 23.6802C56.8321 23.6803 56.8322 23.6804 56.8323 23.6805C57.0463 23.8959 57.1664 24.1872 57.1664 24.4909C57.1664 24.7947 57.0462 25.0862 56.832 25.3017L55.7243 26.4142C53.9808 28.1653 51.6116 29.1497 49.1406 29.1497H42.75C40.4856 29.1497 38.65 30.9853 38.65 33.2497C38.65 33.5547 38.5288 33.8472 38.3132 34.0629C38.0975 34.2785 37.805 34.3997 37.5 34.3997C37.195 34.3997 36.9025 34.2785 36.6868 34.0629C36.4712 33.8472 36.35 33.5547 36.35 33.2497V27.9997C36.35 27.2306 36.6555 26.4929 37.1994 25.9491C37.7432 25.4052 38.4809 25.0997 39.25 25.0997H39.5188C42.8671 25.0997 46.0778 23.7669 48.4418 21.3957L50.6824 19.1483L50.6835 19.1472C50.7904 19.0394 50.9176 18.9539 51.0577 18.8955C51.1979 18.8371 51.3482 18.807 51.5 18.807C51.6518 18.807 51.8021 18.8371 51.9423 18.8955C52.0824 18.9539 52.2096 19.0394 52.3165 19.1472Z" stroke="#E0E0E0" stroke-width="1.2"/>
</g>
<defs>
<filter id="filter0_di_71_2485" x="0.233643" y="14.2217" width="78.7664" height="67.5537" filterUnits="userSpaceOnUse" color-interpolation-filters="sRGB">
<feFlood flood-opacity="0" result="BackgroundImageFix"/>
<feColorMatrix in="SourceAlpha" type="matrix" values="0 0 0 0 0 0 0 0 0 0 0 0 0 0 0 0 0 0 127 0" result="hardAlpha"/>
<feMorphology radius="6" operator="dilate" in="SourceAlpha" result="effect1_dropShadow_71_2485"/>
<feOffset dy="6"/>
<feGaussianBlur stdDeviation="9"/>
<feComposite in2="hardAlpha" operator="out"/>
<feColorMatrix type="matrix" values="0 0 0 0 1 0 0 0 0 0.201961 0 0 0 0 0.129412 0 0 0 0.3 0"/>
<feBlend mode="normal" in2="BackgroundImageFix" result="effect1_dropShadow_71_2485"/>
<feBlend mode="normal" in="SourceGraphic" in2="effect1_dropShadow_71_2485" result="shape"/>
<feColorMatrix in="SourceAlpha" type="matrix" values="0 0 0 0 0 0 0 0 0 0 0 0 0 0 0 0 0 0 127 0" result="hardAlpha"/>
<feOffset dy="-14"/>
<feGaussianBlur stdDeviation="12"/>
<feComposite in2="hardAlpha" operator="arithmetic" k2="-1" k3="1"/>
<feColorMatrix type="matrix" values="0 0 0 0 0.181559 0 0 0 0 0.0131412 0 0 0 0 0.0131412 0 0 0 0.4 0"/>
<feBlend mode="normal" in2="shape" result="effect2_innerShadow_71_2485"/>
</filter>
<filter id="filter1_di_71_2485" x="11.75" y="0.207031" width="70.0164" height="64.793" filterUnits="userSpaceOnUse" color-interpolation-filters="sRGB">
<feFlood flood-opacity="0" result="BackgroundImageFix"/>
<feColorMatrix in="SourceAlpha" type="matrix" values="0 0 0 0 0 0 0 0 0 0 0 0 0 0 0 0 0 0 127 0" result="hardAlpha"/>
<feMorphology radius="6" operator="dilate" in="SourceAlpha" result="effect1_dropShadow_71_2485"/>
<feOffset dy="6"/>
<feGaussianBlur stdDeviation="9"/>
<feComposite in2="hardAlpha" operator="out"/>
<feColorMatrix type="matrix" values="0 0 0 0 1 0 0 0 0 0.201961 0 0 0 0 0.129412 0 0 0 0.3 0"/>
<feBlend mode="normal" in2="BackgroundImageFix" result="effect1_dropShadow_71_2485"/>
<feBlend mode="normal" in="SourceGraphic" in2="effect1_dropShadow_71_2485" result="shape"/>
<feColorMatrix in="SourceAlpha" type="matrix" values="0 0 0 0 0 0 0 0 0 0 0 0 0 0 0 0 0 0 127 0" result="hardAlpha"/>
<feOffset dy="-14.4"/>
<feGaussianBlur stdDeviation="12"/>
<feComposite in2="hardAlpha" operator="arithmetic" k2="-1" k3="1"/>
<feColorMatrix type="matrix" values="0 0 0 0 1 0 0 0 0 1 0 0 0 0 1 0 0 0 0.4 0"/>
<feBlend mode="normal" in2="shape" result="effect2_innerShadow_71_2485"/>
</filter>
<linearGradient id="paint0_linear_71_2485" x1="39.6168" y1="29.75" x2="39.6168" y2="51.7751" gradientUnits="userSpaceOnUse">
<stop stop-color="#DB1414"/>
<stop offset="1" stop-color="#851111"/>
</linearGradient>
</defs>
</svg>
