<svg width="32" height="32" viewBox="0 0 32 32" fill="none" xmlns="http://www.w3.org/2000/svg">
<g filter="url(#filter0_i_432_2019)">
<path d="M10.6668 4C11.3335 4 14.0002 10 14.0002 10.6667C14.0002 12 12.0002 13.3333 11.3335 14.6667C10.6668 16 12.0002 17.3333 13.3335 18.6667C13.8535 19.1867 16.0002 21.3333 17.3335 20.6667C18.6668 20 20.0002 18 21.3335 18C22.0002 18 28.0002 20.6667 28.0002 21.3333C28.0002 24 26.0002 26 24.0002 26.6667C22.0002 27.3333 20.6668 27.3333 18.0002 26.6667C15.3335 26 13.3335 25.3333 10.0002 22C6.66683 18.6667 6.00016 16.6667 5.3335 14C4.66683 11.3333 4.66683 10 5.3335 8C6.00016 6 8.00016 4 10.6668 4Z" fill="url(#paint0_linear_432_2019)"/>
</g>
<path d="M10.4972 4.45506C10.4971 4.45483 10.4996 4.4563 10.5045 4.46018C10.4997 4.45723 10.4972 4.45529 10.4972 4.45506ZM10.5487 4.50146C10.5666 4.52008 10.5891 4.54504 10.6161 4.57771C10.7292 4.71449 10.873 4.92661 11.0402 5.20516C11.3719 5.75799 11.7597 6.51228 12.1316 7.29738C12.5027 8.08066 12.8524 8.88323 13.1083 9.52817C13.2365 9.85121 13.3391 10.1296 13.4089 10.3437C13.4438 10.451 13.4687 10.5367 13.4844 10.6007C13.4965 10.6504 13.4995 10.6729 13.5001 10.6758C13.4978 10.8824 13.4187 11.1228 13.2473 11.4114C13.0738 11.7037 12.8281 12.0088 12.5405 12.3374C12.4344 12.4587 12.3182 12.5879 12.1992 12.7202C12.0133 12.9269 11.8206 13.1411 11.6493 13.3442C11.3603 13.6867 11.0798 14.0561 10.8863 14.4431C10.4419 15.3318 10.6982 16.1935 11.1595 16.9317C11.6065 17.6469 12.3065 18.3468 12.9535 18.9938L12.9799 19.0202L12.984 19.0243C13.2468 19.2871 13.9406 19.9809 14.7489 20.5262C15.1545 20.7998 15.6128 21.0527 16.0793 21.1886C16.5461 21.3246 17.0712 21.3568 17.5571 21.1139C17.9441 20.9204 18.3135 20.6399 18.6559 20.3509C18.859 20.1795 19.0732 19.9869 19.28 19.8009C19.4123 19.682 19.5415 19.5657 19.6627 19.4596C19.9914 19.1721 20.2965 18.9264 20.5888 18.7528C20.8774 18.5815 21.1177 18.5023 21.3243 18.5C21.3272 18.5007 21.3497 18.5036 21.3995 18.5158C21.4635 18.5314 21.5492 18.5563 21.6565 18.5913C21.8706 18.661 22.149 18.7636 22.472 18.8918C23.1169 19.1478 23.9195 19.4975 24.7028 19.8685C25.4879 20.2404 26.2422 20.6283 26.795 20.96C27.0736 21.1271 27.2857 21.271 27.4225 21.384C27.4551 21.4111 27.4801 21.4335 27.4987 21.4515C27.4405 23.7969 25.6572 25.5873 23.842 26.1923C22.8772 26.5139 22.0986 26.6667 21.2502 26.6667C20.3936 26.6667 19.4396 26.5111 18.1214 26.1816C16.7969 25.8505 15.6793 25.5289 14.4855 24.8922C13.2913 24.2553 11.9969 23.2897 10.3537 21.6464C8.71049 20.0032 7.74491 18.7089 7.10801 17.5147C6.4713 16.3209 6.1497 15.2033 5.81857 13.8787C5.48903 12.5606 5.3335 11.6065 5.3335 10.75C5.3335 9.90155 5.48622 9.12296 5.80784 8.15811C6.4129 6.34294 8.20328 4.55966 10.5487 4.50146ZM27.5451 21.503C27.5449 21.5029 27.5429 21.5004 27.54 21.4956C27.5439 21.5006 27.5453 21.503 27.5451 21.503Z" stroke="#D43D3D"/>
<path d="M18.667 9.38672C19.547 9.80005 20.347 10.3601 21.0137 11.0401C21.667 11.6934 22.2137 12.4801 22.6137 13.3334" stroke="#F4F4F4" stroke-width="2" stroke-linecap="round" stroke-linejoin="round"/>
<path d="M20 4.33398C21.88 4.82732 23.56 5.80065 24.8933 7.13398C26.2133 8.46732 27.1867 10.134 27.6667 12.0007" stroke="#F4F4F4" stroke-width="2" stroke-linecap="round" stroke-linejoin="round"/>
<defs>
<filter id="filter0_i_432_2019" x="4.8335" y="-10" width="23.1665" height="37.166" filterUnits="userSpaceOnUse" color-interpolation-filters="sRGB">
<feFlood flood-opacity="0" result="BackgroundImageFix"/>
<feBlend mode="normal" in="SourceGraphic" in2="BackgroundImageFix" result="shape"/>
<feColorMatrix in="SourceAlpha" type="matrix" values="0 0 0 0 0 0 0 0 0 0 0 0 0 0 0 0 0 0 127 0" result="hardAlpha"/>
<feOffset dy="-14"/>
<feGaussianBlur stdDeviation="12"/>
<feComposite in2="hardAlpha" operator="arithmetic" k2="-1" k3="1"/>
<feColorMatrix type="matrix" values="0 0 0 0 0.181559 0 0 0 0 0.0131412 0 0 0 0 0.0131412 0 0 0 0.4 0"/>
<feBlend mode="normal" in2="shape" result="effect1_innerShadow_432_2019"/>
</filter>
<linearGradient id="paint0_linear_432_2019" x1="16.4168" y1="4" x2="16.4168" y2="27.1667" gradientUnits="userSpaceOnUse">
<stop stop-color="#DB1414"/>
<stop offset="1" stop-color="#851111"/>
</linearGradient>
</defs>
</svg>
