<svg width="42" height="44" viewBox="0 0 42 44" fill="none" xmlns="http://www.w3.org/2000/svg">
<g filter="url(#filter0_i_593_2174)">
<path d="M37.8526 25.6554L37.135 28.9104C35.8925 34.5104 31.5001 38.5004 25.1651 38.5004H16.835C10.5 38.5004 6.10754 34.5104 4.86504 28.9104L4.14753 25.6554C3.79753 24.0629 4.74252 22.2604 6.26502 21.6479L8.75004 20.6504L18.3926 16.7829C19.2326 16.4504 20.125 16.2754 21 16.2754C21.875 16.2754 22.7675 16.4504 23.6075 16.7829L33.25 20.6504L35.7351 21.6479C37.2576 22.2604 38.2026 24.0629 37.8526 25.6554Z" fill="url(#paint0_linear_593_2174)"/>
</g>
<path d="M21.0005 16.7754C21.7084 16.7754 22.4323 16.8998 23.1274 17.1387L23.4233 17.248L33.064 21.1143L35.5483 22.1123V22.1113C36.7626 22.5998 37.5575 24.0024 37.4067 25.292L37.3638 25.5479L36.647 28.8018C35.4522 34.1867 31.2519 37.9998 25.1655 38H16.8354C10.9392 38 6.81265 34.422 5.47412 29.3027L5.35303 28.8018L4.63623 25.5479C4.33858 24.1932 5.15651 22.6324 6.45166 22.1113V22.1123L8.93604 21.1143L18.5767 17.248C19.3607 16.9377 20.1913 16.7754 21.0005 16.7754Z" stroke="#D43D3D"/>
<path d="M33.25 14V20.65L23.6075 16.7825C21.9275 16.1175 20.0725 16.1175 18.3925 16.7825L8.75 20.65V14C8.75 11.1125 11.1125 8.75 14 8.75H28C30.8875 8.75 33.25 11.1125 33.25 14Z" fill="#F4F4F4"/>
<g filter="url(#filter1_i_593_2174)">
<path d="M25.375 8.75H16.625V5.25C16.625 4.2875 17.4125 3.5 18.375 3.5H23.625C24.5875 3.5 25.375 4.2875 25.375 5.25V8.75Z" fill="url(#paint1_linear_593_2174)"/>
</g>
<path d="M18.375 4H23.625C24.3114 4 24.875 4.56364 24.875 5.25V8.25H17.125V5.25C17.125 4.56364 17.6886 4 18.375 4Z" stroke="#D43D3D"/>
<path d="M27.957 34.0029C28.8263 34.0247 29.6862 34.1879 30.5029 34.4863L30.9072 34.6465L30.9229 34.6533L30.9375 34.6602L31.3115 34.835L31.3232 34.8398L31.335 34.8457L35.9863 37.1699L36.2148 37.2979C36.7314 37.6205 37.1285 38.1072 37.3398 38.6836C37.5813 39.3424 37.5617 40.069 37.2852 40.7139C37.0086 41.3587 36.4962 41.8741 35.8525 42.1533C35.2891 42.3977 34.6622 42.4458 34.0723 42.2939L33.8223 42.2158L33.7949 42.2061L33.7676 42.1943L33.5801 42.1143L33.5537 42.1025L33.5283 42.0898L28.875 39.7646V39.7637C28.5633 39.6078 28.2221 39.5193 27.874 39.5029C27.5302 39.4868 27.1867 39.5414 26.8652 39.6641L26.6123 39.7764L24.3359 40.917H24.335C23.2949 41.4367 22.1544 41.7239 20.9922 41.7578C19.9752 41.7874 18.9628 41.6231 18.0098 41.2744L17.6055 41.1133L17.5938 41.1084L17.5811 41.1025L17.209 40.9316L17.1943 40.9248L17.1797 40.917L14.874 39.7637V39.7627C14.5627 39.6072 14.2217 39.5193 13.874 39.5029C13.5302 39.4868 13.1867 39.5414 12.8652 39.6641L12.6123 39.7764L7.9873 42.0918L7.98633 42.0908C7.43786 42.367 6.81547 42.4519 6.21777 42.334L5.96289 42.2705C5.37301 42.0943 4.86148 41.7263 4.50781 41.2285L4.36621 41.0068C4.01536 40.397 3.91145 39.6753 4.07617 38.9912L4.15039 38.7393C4.34939 38.162 4.73571 37.6644 5.25195 37.3291L5.27344 37.3154L5.2959 37.3027L5.47461 37.1992L5.50098 37.1836L5.52832 37.1699L10.1797 34.8447L10.5742 34.6602C11.5048 34.2566 12.505 34.0339 13.5215 34.0039L13.957 34.0029C14.8263 34.0247 15.6862 34.1879 16.5029 34.4863L16.9072 34.6465L16.9229 34.6533L16.9375 34.6602L17.3115 34.835L17.3232 34.8398L17.3359 34.8467L19.6387 35.998L19.8779 36.1025C20.1216 36.1941 20.3786 36.2465 20.6396 36.2588C20.9835 36.2749 21.3269 36.2194 21.6484 36.0967L21.8896 35.9893L24.1797 34.8447L24.5742 34.6602C25.5048 34.2566 26.505 34.0339 27.5215 34.0039L27.957 34.0029Z" fill="#F4F4F4" stroke="#1D1D1D" stroke-width="2"/>
<defs>
<filter id="filter0_i_593_2174" x="4.07471" y="2.27539" width="33.8506" height="36.2246" filterUnits="userSpaceOnUse" color-interpolation-filters="sRGB">
<feFlood flood-opacity="0" result="BackgroundImageFix"/>
<feBlend mode="normal" in="SourceGraphic" in2="BackgroundImageFix" result="shape"/>
<feColorMatrix in="SourceAlpha" type="matrix" values="0 0 0 0 0 0 0 0 0 0 0 0 0 0 0 0 0 0 127 0" result="hardAlpha"/>
<feOffset dy="-14"/>
<feGaussianBlur stdDeviation="12"/>
<feComposite in2="hardAlpha" operator="arithmetic" k2="-1" k3="1"/>
<feColorMatrix type="matrix" values="0 0 0 0 0.181559 0 0 0 0 0.0131412 0 0 0 0 0.0131412 0 0 0 0.4 0"/>
<feBlend mode="normal" in2="shape" result="effect1_innerShadow_593_2174"/>
</filter>
<filter id="filter1_i_593_2174" x="16.625" y="-10.5" width="8.75" height="19.25" filterUnits="userSpaceOnUse" color-interpolation-filters="sRGB">
<feFlood flood-opacity="0" result="BackgroundImageFix"/>
<feBlend mode="normal" in="SourceGraphic" in2="BackgroundImageFix" result="shape"/>
<feColorMatrix in="SourceAlpha" type="matrix" values="0 0 0 0 0 0 0 0 0 0 0 0 0 0 0 0 0 0 127 0" result="hardAlpha"/>
<feOffset dy="-14"/>
<feGaussianBlur stdDeviation="12"/>
<feComposite in2="hardAlpha" operator="arithmetic" k2="-1" k3="1"/>
<feColorMatrix type="matrix" values="0 0 0 0 0.181559 0 0 0 0 0.0131412 0 0 0 0 0.0131412 0 0 0 0.4 0"/>
<feBlend mode="normal" in2="shape" result="effect1_innerShadow_593_2174"/>
</filter>
<linearGradient id="paint0_linear_593_2174" x1="21" y1="16.2754" x2="21" y2="38.5004" gradientUnits="userSpaceOnUse">
<stop stop-color="#DB1414"/>
<stop offset="1" stop-color="#851111"/>
</linearGradient>
<linearGradient id="paint1_linear_593_2174" x1="21" y1="3.5" x2="21" y2="8.75" gradientUnits="userSpaceOnUse">
<stop stop-color="#DB1414"/>
<stop offset="1" stop-color="#851111"/>
</linearGradient>
</defs>
</svg>
