<svg width="38" height="42" viewBox="0 0 38 42" fill="none" xmlns="http://www.w3.org/2000/svg">
<g filter="url(#filter0_i_595_2029)">
<path d="M21.6428 17.7188V17.6695C22.4192 18.1125 23.3194 18.375 24.2857 18.375C25.3759 18.375 26.3834 18.0469 27.2259 17.4891C27.9444 19.5316 29.91 21 32.2143 21C33.1805 21 34.0808 20.7457 34.8571 20.2945V21C34.8571 25.2902 32.7841 29.1047 29.5714 31.5V39.375C29.5714 40.827 28.3904 42 26.9285 42H13.7143C12.2524 42 11.0714 40.827 11.0714 39.375V32.9438C9.6426 32.2957 8.32943 31.4016 7.19796 30.2777L6.23992 29.3262C4.25778 27.3574 3.14282 24.6832 3.14282 21.9023V19.6875C3.14282 16.7918 5.51313 14.4375 8.42854 14.4375H15.6964C17.5216 14.4375 19 15.9059 19 17.7188C19 19.5316 17.5216 21 15.6964 21H11.0714C10.3446 21 9.74996 21.5906 9.74996 22.3125C9.74996 23.0344 10.3446 23.625 11.0714 23.625H15.6964C18.9834 23.625 21.6428 20.9836 21.6428 17.7188Z" fill="url(#paint0_linear_595_2029)"/>
</g>
<path d="M11.5715 32.6211L11.2776 32.4883C10.0737 31.9422 8.95557 31.2155 7.96606 30.3184L7.55005 29.9229L6.59204 28.9717C4.704 27.0964 3.64282 24.5494 3.64282 21.9023V19.6875C3.64282 17.0711 5.78649 14.9375 8.42896 14.9375H15.6965C17.2488 14.9376 18.5002 16.1852 18.5002 17.7188C18.5002 19.2523 17.2488 20.4999 15.6965 20.5H11.0715C10.0718 20.5 9.25024 21.3113 9.25024 22.3125C9.25024 23.3137 10.0718 24.125 11.0715 24.125H15.6965C19.0096 24.1249 21.7372 21.6459 22.0999 18.4453C22.7721 18.7189 23.5088 18.875 24.2854 18.875C25.262 18.875 26.177 18.6302 26.9827 18.208C27.9082 20.1534 29.9065 21.4999 32.2141 21.5C32.9714 21.5 33.6926 21.3546 34.3547 21.0908C34.3257 25.1789 32.342 28.8112 29.2727 31.0996L29.0715 31.249V39.375C29.0715 40.5475 28.1176 41.4998 26.929 41.5H13.7141C12.5253 41.4999 11.5715 40.5476 11.5715 39.375V32.6211Z" stroke="#D43D3D"/>
<path d="M18.9999 2.625C18.9999 1.17305 17.8189 0 16.3571 0C14.8952 0 13.7142 1.17305 13.7142 2.625V11.8125H18.9999V2.625Z" fill="#F7F7F7"/>
<path d="M8.4285 2.625C6.96667 2.625 5.78564 3.79805 5.78564 5.25V11.8125H11.0714V5.25C11.0714 3.79805 9.89033 2.625 8.4285 2.625Z" fill="#F7F7F7"/>
<path d="M24.2856 2.625C22.8238 2.625 21.6428 3.79805 21.6428 5.25V13.125C21.6428 14.577 22.8238 15.75 24.2856 15.75C25.7475 15.75 26.9285 14.577 26.9285 13.125V5.25C26.9285 3.79805 25.7475 2.625 24.2856 2.625Z" fill="#F7F7F7"/>
<path d="M32.2142 7.875C30.7524 7.875 29.5714 9.04805 29.5714 10.5V15.75C29.5714 17.202 30.7524 18.375 32.2142 18.375C33.676 18.375 34.8571 17.202 34.8571 15.75V10.5C34.8571 9.04805 33.676 7.875 32.2142 7.875Z" fill="#F7F7F7"/>
<defs>
<filter id="filter0_i_595_2029" x="3.14282" y="0.4375" width="31.7144" height="41.5625" filterUnits="userSpaceOnUse" color-interpolation-filters="sRGB">
<feFlood flood-opacity="0" result="BackgroundImageFix"/>
<feBlend mode="normal" in="SourceGraphic" in2="BackgroundImageFix" result="shape"/>
<feColorMatrix in="SourceAlpha" type="matrix" values="0 0 0 0 0 0 0 0 0 0 0 0 0 0 0 0 0 0 127 0" result="hardAlpha"/>
<feOffset dy="-14"/>
<feGaussianBlur stdDeviation="12"/>
<feComposite in2="hardAlpha" operator="arithmetic" k2="-1" k3="1"/>
<feColorMatrix type="matrix" values="0 0 0 0 0.181559 0 0 0 0 0.0131412 0 0 0 0 0.0131412 0 0 0 0.4 0"/>
<feBlend mode="normal" in2="shape" result="effect1_innerShadow_595_2029"/>
</filter>
<linearGradient id="paint0_linear_595_2029" x1="19" y1="14.4375" x2="19" y2="42" gradientUnits="userSpaceOnUse">
<stop stop-color="#DB1414"/>
<stop offset="1" stop-color="#851111"/>
</linearGradient>
</defs>
</svg>
