<svg width="42" height="42" viewBox="0 0 42 42" fill="none" xmlns="http://www.w3.org/2000/svg">
<g clip-path="url(#clip0_180_2760)">
<path d="M29.75 7C29.2859 7 28.8407 6.81563 28.5125 6.48744C28.1844 6.15925 28 5.71413 28 5.25C28 4.78587 28.1844 4.34075 28.5125 4.01256C28.8407 3.68437 29.2859 3.5 29.75 3.5H36.75C37.2141 3.5 37.6592 3.68437 37.9874 4.01256C38.3156 4.34075 38.5 4.78587 38.5 5.25V12.25C38.5 12.7141 38.3156 13.1592 37.9874 13.4874C37.6592 13.8156 37.2141 14 36.75 14C36.2858 14 35.8407 13.8156 35.5125 13.4874C35.1843 13.1592 35 12.7141 35 12.25V9.4745L24.8622 19.6123C24.5341 19.9403 24.089 20.1246 23.625 20.1246C23.1609 20.1246 22.7159 19.9403 22.3877 19.6123L17.5 14.7245L8.23723 23.9873C7.90718 24.306 7.46512 24.4824 7.00628 24.4784C6.54743 24.4744 6.10851 24.2904 5.78405 23.9659C5.45958 23.6415 5.27554 23.2025 5.27155 22.7437C5.26756 22.2849 5.44395 21.8428 5.76273 21.5128L16.2627 11.0128C16.5909 10.6847 17.0359 10.5004 17.5 10.5004C17.964 10.5004 18.4091 10.6847 18.7372 11.0128L23.625 15.9005L32.5255 7H29.75Z" fill="#F4F4F4"/>
<g filter="url(#filter0_di_180_2760)">
<path d="M8.75 36.75V31.5C8.75 31.0359 8.56563 30.5908 8.23744 30.2626C7.90925 29.9344 7.46413 29.75 7 29.75C6.53587 29.75 6.09075 29.9344 5.76256 30.2626C5.43437 30.5908 5.25 31.0359 5.25 31.5V36.75C5.25 37.2141 5.43437 37.6593 5.76256 37.9874C6.09075 38.3156 6.53587 38.5 7 38.5C7.46413 38.5 7.90925 38.3156 8.23744 37.9874C8.56563 37.6593 8.75 37.2141 8.75 36.75Z" fill="url(#paint0_linear_180_2760)"/>
<path d="M16.9874 23.2626C17.3156 23.5908 17.5 24.0359 17.5 24.5V36.75C17.5 37.2141 17.3156 37.6593 16.9874 37.9874C16.6592 38.3156 16.2141 38.5 15.75 38.5C15.2859 38.5 14.8408 38.3156 14.5126 37.9874C14.1844 37.6593 14 37.2141 14 36.75V24.5C14 24.0359 14.1844 23.5908 14.5126 23.2626C14.8408 22.9344 15.2859 22.75 15.75 22.75C16.2141 22.75 16.6592 22.9344 16.9874 23.2626Z" fill="url(#paint1_linear_180_2760)"/>
<path d="M25.7374 26.7626C25.4092 26.4344 24.9641 26.25 24.5 26.25C24.0359 26.25 23.5908 26.4344 23.2626 26.7626C22.9344 27.0908 22.75 27.5359 22.75 28V36.75C22.75 37.2141 22.9344 37.6593 23.2626 37.9874C23.5908 38.3156 24.0359 38.5 24.5 38.5C24.9641 38.5 25.4092 38.3156 25.7374 37.9874C26.0656 37.6593 26.25 37.2141 26.25 36.75V28C26.25 27.5359 26.0656 27.0908 25.7374 26.7626Z" fill="url(#paint2_linear_180_2760)"/>
<path d="M34.4874 18.0126C34.8156 18.3408 35 18.7859 35 19.25V36.75C35 37.2141 34.8156 37.6593 34.4874 37.9874C34.1593 38.3156 33.7141 38.5 33.25 38.5C32.7859 38.5 32.3407 38.3156 32.0126 37.9874C31.6844 37.6593 31.5 37.2141 31.5 36.75V19.25C31.5 18.7859 31.6844 18.3408 32.0126 18.0126C32.3407 17.6844 32.7859 17.5 33.25 17.5C33.7141 17.5 34.1593 17.6844 34.4874 18.0126Z" fill="url(#paint3_linear_180_2760)"/>
<path d="M8.65 31.5V36.75C8.65 37.1876 8.47616 37.6073 8.16673 37.9167C7.85729 38.2262 7.43761 38.4 7 38.4C6.56239 38.4 6.14271 38.2262 5.83327 37.9167C5.52384 37.6073 5.35 37.1876 5.35 36.75V31.5C5.35 31.0624 5.52384 30.6427 5.83327 30.3333C6.14271 30.0238 6.56239 29.85 7 29.85C7.43761 29.85 7.85729 30.0238 8.16673 30.3333C8.47616 30.6427 8.65 31.0624 8.65 31.5ZM16.9167 23.3333C17.2262 23.6427 17.4 24.0624 17.4 24.5V36.75C17.4 37.1876 17.2262 37.6073 16.9167 37.9167C16.6073 38.2262 16.1876 38.4 15.75 38.4C15.3124 38.4 14.8927 38.2262 14.5833 37.9167C14.2738 37.6073 14.1 37.1876 14.1 36.75V24.5C14.1 24.0624 14.2738 23.6427 14.5833 23.3333C14.8927 23.0238 15.3124 22.85 15.75 22.85C16.1876 22.85 16.6073 23.0238 16.9167 23.3333ZM24.5 26.35C24.9376 26.35 25.3573 26.5238 25.6667 26.8333C25.9762 27.1427 26.15 27.5624 26.15 28V36.75C26.15 37.1876 25.9762 37.6073 25.6667 37.9167C25.3573 38.2262 24.9376 38.4 24.5 38.4C24.0624 38.4 23.6427 38.2262 23.3333 37.9167C23.0238 37.6073 22.85 37.1876 22.85 36.75V28C22.85 27.5624 23.0238 27.1427 23.3333 26.8333C23.6427 26.5238 24.0624 26.35 24.5 26.35ZM34.4167 18.0833C34.7262 18.3927 34.9 18.8124 34.9 19.25V36.75C34.9 37.1876 34.7262 37.6073 34.4167 37.9167C34.1073 38.2262 33.6876 38.4 33.25 38.4C32.8124 38.4 32.3927 38.2262 32.0833 37.9167C31.7738 37.6073 31.6 37.1876 31.6 36.75V19.25C31.6 18.8124 31.7738 18.3927 32.0833 18.0833C32.3927 17.7738 32.8124 17.6 33.25 17.6C33.6876 17.6 34.1073 17.7738 34.4167 18.0833Z" stroke="#D43D3D" stroke-width="0.2"/>
</g>
</g>
<defs>
<filter id="filter0_di_180_2760" x="-18.75" y="-0.5" width="77.75" height="69" filterUnits="userSpaceOnUse" color-interpolation-filters="sRGB">
<feFlood flood-opacity="0" result="BackgroundImageFix"/>
<feColorMatrix in="SourceAlpha" type="matrix" values="0 0 0 0 0 0 0 0 0 0 0 0 0 0 0 0 0 0 127 0" result="hardAlpha"/>
<feMorphology radius="6" operator="dilate" in="SourceAlpha" result="effect1_dropShadow_180_2760"/>
<feOffset dy="6"/>
<feGaussianBlur stdDeviation="9"/>
<feComposite in2="hardAlpha" operator="out"/>
<feColorMatrix type="matrix" values="0 0 0 0 1 0 0 0 0 0.201961 0 0 0 0 0.129412 0 0 0 0.3 0"/>
<feBlend mode="normal" in2="BackgroundImageFix" result="effect1_dropShadow_180_2760"/>
<feBlend mode="normal" in="SourceGraphic" in2="effect1_dropShadow_180_2760" result="shape"/>
<feColorMatrix in="SourceAlpha" type="matrix" values="0 0 0 0 0 0 0 0 0 0 0 0 0 0 0 0 0 0 127 0" result="hardAlpha"/>
<feOffset dy="-14"/>
<feGaussianBlur stdDeviation="12"/>
<feComposite in2="hardAlpha" operator="arithmetic" k2="-1" k3="1"/>
<feColorMatrix type="matrix" values="0 0 0 0 0.181559 0 0 0 0 0.0131412 0 0 0 0 0.0131412 0 0 0 0.4 0"/>
<feBlend mode="normal" in2="shape" result="effect2_innerShadow_180_2760"/>
</filter>
<linearGradient id="paint0_linear_180_2760" x1="20.125" y1="17.5" x2="20.125" y2="38.5" gradientUnits="userSpaceOnUse">
<stop stop-color="#DB1414"/>
<stop offset="1" stop-color="#851111"/>
</linearGradient>
<linearGradient id="paint1_linear_180_2760" x1="20.125" y1="17.5" x2="20.125" y2="38.5" gradientUnits="userSpaceOnUse">
<stop stop-color="#DB1414"/>
<stop offset="1" stop-color="#851111"/>
</linearGradient>
<linearGradient id="paint2_linear_180_2760" x1="20.125" y1="17.5" x2="20.125" y2="38.5" gradientUnits="userSpaceOnUse">
<stop stop-color="#DB1414"/>
<stop offset="1" stop-color="#851111"/>
</linearGradient>
<linearGradient id="paint3_linear_180_2760" x1="20.125" y1="17.5" x2="20.125" y2="38.5" gradientUnits="userSpaceOnUse">
<stop stop-color="#DB1414"/>
<stop offset="1" stop-color="#851111"/>
</linearGradient>
<clipPath id="clip0_180_2760">
<rect width="42" height="42" fill="white"/>
</clipPath>
</defs>
</svg>
