<svg width="42" height="42" viewBox="0 0 42 42" fill="none" xmlns="http://www.w3.org/2000/svg">
<path d="M31.2429 0.594241L31.9737 2.84334C32.2006 3.52766 32.5844 4.14939 33.0946 4.6588C33.6047 5.16822 34.227 5.55117 34.9116 5.77704L37.1607 6.50784L37.2048 6.52044C37.3783 6.58151 37.5285 6.6949 37.6348 6.84499C37.7411 6.99507 37.7982 7.17444 37.7982 7.35834C37.7982 7.54224 37.7411 7.72161 37.6348 7.8717C37.5285 8.02178 37.3783 8.13518 37.2048 8.19624L34.9557 8.92704C34.2711 9.15291 33.6488 9.53586 33.1387 10.0453C32.6285 10.5547 32.2447 11.1764 32.0178 11.8607L31.287 14.1077C31.226 14.2812 31.1126 14.4314 30.9625 14.5377C30.8124 14.644 30.633 14.7011 30.4491 14.7011C30.2652 14.7011 30.0859 14.644 29.9358 14.5377C29.7857 14.4314 29.6723 14.2812 29.6112 14.1077L28.8783 11.8607C28.6533 11.1749 28.2707 10.5513 27.7611 10.04C27.2513 9.52776 26.6284 9.14223 25.9425 8.91444L23.6934 8.18364C23.52 8.12258 23.3697 8.00918 23.2635 7.8591C23.1572 7.70901 23.1001 7.52964 23.1001 7.34574C23.1001 7.16184 23.1572 6.98247 23.2635 6.83239C23.3697 6.6823 23.52 6.56891 23.6934 6.50784L25.9425 5.77704C26.6186 5.54506 27.2317 5.15937 27.7335 4.65031C28.2352 4.14125 28.612 3.52271 28.8342 2.84334L29.565 0.596341C29.6257 0.422144 29.739 0.271136 29.8893 0.164275C30.0397 0.0574143 30.2195 0 30.404 0C30.5884 0 30.7683 0.0574143 30.9186 0.164275C31.069 0.271136 31.1823 0.420044 31.2429 0.594241ZM41.5434 17.2514L39.9348 16.7306C39.4467 16.5675 39.0033 16.293 38.6395 15.9289C38.2758 15.5647 38.0017 15.121 37.839 14.6327L37.314 13.0283C37.2706 12.9043 37.1896 12.7968 37.0824 12.7208C36.9752 12.6448 36.847 12.6039 36.7155 12.6039C36.5841 12.6039 36.4559 12.6448 36.3487 12.7208C36.2415 12.7968 36.1605 12.9043 36.117 13.0283L35.5962 14.6327C35.4365 15.1179 35.1669 15.5596 34.8085 15.9235C34.4501 16.2874 34.0125 16.5636 33.5298 16.7306L31.9233 17.2514C31.8002 17.2959 31.6938 17.3772 31.6186 17.4843C31.5434 17.5914 31.5031 17.7191 31.5031 17.8499C31.5031 17.9808 31.5434 18.1085 31.6186 18.2156C31.6938 18.3227 31.8002 18.404 31.9233 18.4484L33.5298 18.9713C34.0194 19.1346 34.4641 19.4098 34.8287 19.7751C35.1932 20.1404 35.4676 20.5856 35.6298 21.0755L36.1506 22.6799C36.1941 22.804 36.2751 22.9115 36.3823 22.9875C36.4895 23.0635 36.6177 23.1044 36.7491 23.1044C36.8806 23.1044 37.0088 23.0635 37.116 22.9875C37.2232 22.9115 37.3042 22.804 37.3476 22.6799L37.8705 21.0755C38.0334 20.587 38.3078 20.1432 38.6719 19.779C39.0361 19.4149 39.4799 19.1405 39.9684 18.9776L41.5749 18.4568C41.698 18.4124 41.8044 18.3311 41.8796 18.224C41.9548 18.1169 41.9952 17.9892 41.9952 17.8583C41.9952 17.7275 41.9548 17.5998 41.8796 17.4927C41.8044 17.3856 41.698 17.3043 41.5749 17.2598L41.5434 17.2514Z" fill="#F4F4F4"/>
<g filter="url(#filter0_i_432_1981)">
<path d="M36.7543 25.2003C36.1956 25.1997 35.6499 25.0314 35.1877 24.7173C34.7257 24.3813 34.3897 23.9382 34.1797 23.4132L33.6337 21.729C33.5783 21.5518 33.4769 21.3923 33.3397 21.267C33.2092 21.1364 33.0514 21.036 32.8777 20.973L31.2775 20.448C30.7105 20.238 30.2485 19.8999 29.9125 19.4379C29.5765 18.9759 29.4085 18.4278 29.4085 17.8587C29.4085 17.8112 29.4097 17.7637 29.4121 17.7162C29.4394 17.1737 29.1576 16.5785 28.7155 16.2627C28.2159 15.8965 27.8353 15.391 27.6214 14.8095L26.8654 12.5163C26.6764 12.0333 26.4874 11.7603 26.2564 11.5293C25.9744 11.257 25.6371 11.0486 25.2673 10.9182L23.0392 10.1832C22.6132 10.0415 22.0501 10.3177 22.0501 10.7667V32.9539C22.0501 35.0372 22.9056 37.2609 24.947 37.6767C26.0231 37.896 27.138 37.8275 28.1792 37.4781C29.2204 37.1288 30.151 36.511 30.8771 35.6871C31.6032 34.8632 32.0992 33.8624 32.3149 32.7855C32.3621 32.5473 32.5474 32.3626 32.7816 32.2983C34.2647 31.8917 35.5713 30.9944 36.4841 29.7471C37.2719 28.6707 37.7225 27.3936 37.7921 26.0762C37.82 25.5475 37.2838 25.2075 36.7543 25.2003ZM19.9501 7.71706C19.9501 6.11727 19.1947 4.44439 17.6079 4.24065C16.7616 4.13198 15.9015 4.2379 15.1068 4.54867C14.3121 4.85944 13.6083 5.36508 13.0602 6.01906C12.5121 6.67304 12.1372 7.45437 11.9701 8.29115L11.8776 8.75522C11.7747 9.27143 11.3712 9.67496 10.855 9.77795C9.57085 10.0355 8.41545 10.7298 7.58512 11.7427C6.75479 12.7556 6.30075 14.0248 6.30013 15.3345V15.7503C6.30013 15.7895 6.30056 15.8286 6.30142 15.8676C6.34608 17.9015 5.97062 20.7022 5.00877 22.4948C4.3388 23.7434 4.07435 25.1697 4.25216 26.5755C4.42996 27.9814 5.04119 29.2969 6.00094 30.3394C6.87104 31.2845 7.98843 31.9627 9.2226 32.2997C9.45451 32.363 9.63819 32.5456 9.68533 32.7813C9.90078 33.8583 10.3965 34.8594 11.1225 35.6836C11.8485 36.5077 12.7791 37.1258 13.8203 37.4753C14.8615 37.8249 15.9765 37.8936 17.0528 37.6745C19.0944 37.2589 19.9501 35.0349 19.9501 32.9514V7.71706Z" fill="url(#paint0_linear_432_1981)"/>
</g>
<path d="M32.3149 32.7855L31.8244 32.6885C31.9115 32.2484 32.2487 31.926 32.6494 31.8161C34.0238 31.4393 35.2347 30.6077 36.0807 29.4518C36.8107 28.4543 37.2283 27.2707 37.2928 26.0499C37.2964 25.9814 37.2709 25.9113 37.1765 25.8384C37.0747 25.7597 36.9171 25.7032 36.7502 25.7003C36.7493 25.7003 36.7484 25.7003 36.7476 25.7003L36.7543 25.2003L32.3149 32.7855ZM32.3149 32.7855L31.8247 32.6873C31.6262 33.6779 31.17 34.5986 30.502 35.3565C29.834 36.1144 28.978 36.6827 28.0202 37.0041C27.0624 37.3255 26.0368 37.3885 25.0468 37.1868C24.2027 37.0149 23.5885 36.4721 23.173 35.703C22.7527 34.9249 22.5501 33.9347 22.5501 32.9539V10.7667V10.7665C22.5501 10.7634 22.5501 10.7592 22.5573 10.7487C22.5666 10.7351 22.5879 10.7126 22.6272 10.6908C22.7134 10.6431 22.8161 10.636 22.8814 10.6577L22.8826 10.6581L25.1056 11.3914C25.4046 11.4975 25.6774 11.6661 25.906 11.886C26.0784 12.0591 26.2302 12.2686 26.395 12.6862L27.1466 14.9661L27.1492 14.9742L27.1522 14.9821C27.4 15.6559 27.841 16.2416 28.4199 16.666L28.4199 16.666L28.4249 16.6696C28.7255 16.8843 28.9316 17.3152 28.9127 17.6911C28.9099 17.7469 28.9085 17.8028 28.9085 17.8587C28.9085 18.5275 29.1066 19.1799 29.5082 19.732C29.9072 20.2807 30.4528 20.6758 31.1039 20.9169L31.1127 20.9202M32.3149 32.7855L31.1127 20.9202M31.1127 20.9202L31.1217 20.9231M31.1127 20.9202L31.1217 20.9231M31.1217 20.9231L32.7137 21.4454L31.1217 20.9231ZM17.5443 4.73658C18.1559 4.81511 18.6201 5.17195 18.9456 5.71308C19.2767 6.2635 19.4501 6.98813 19.4501 7.71706V32.9514C19.4501 33.9324 19.2475 34.9227 18.8272 35.7008C18.4116 36.4699 17.7973 37.0127 16.9531 37.1845C15.963 37.3861 14.9373 37.3229 13.9795 37.0013C13.0216 36.6798 12.1656 36.1112 11.4977 35.3531C10.8299 34.5949 10.3738 33.674 10.1756 32.6833C10.0882 32.2461 9.75281 31.9261 9.35429 31.8173C8.21059 31.5051 7.17511 30.8766 6.36879 30.0008C5.4794 29.0347 4.91298 27.8156 4.74821 26.5128C4.58344 25.21 4.8285 23.8883 5.44935 22.7312C6.46931 20.8303 6.84684 17.9306 6.8013 15.8567C6.80052 15.8213 6.80013 15.7859 6.80013 15.7503V15.3348C6.80013 15.3347 6.80013 15.3346 6.80013 15.3345C6.80075 14.1404 7.21475 12.9832 7.9718 12.0597C8.72886 11.1361 9.78227 10.5031 10.9531 10.2682C11.6673 10.1256 12.2256 9.56725 12.368 8.85298L12.4605 8.38906C12.6111 7.6345 12.9491 6.92995 13.4434 6.34023C13.9377 5.75051 14.5723 5.29457 15.2889 5.01433C16.0055 4.7341 16.7811 4.63859 17.5443 4.73658Z" stroke="#D43D3D"/>
<defs>
<filter id="filter0_i_432_1981" x="4.19824" y="-9.80078" width="33.595" height="47.6035" filterUnits="userSpaceOnUse" color-interpolation-filters="sRGB">
<feFlood flood-opacity="0" result="BackgroundImageFix"/>
<feBlend mode="normal" in="SourceGraphic" in2="BackgroundImageFix" result="shape"/>
<feColorMatrix in="SourceAlpha" type="matrix" values="0 0 0 0 0 0 0 0 0 0 0 0 0 0 0 0 0 0 127 0" result="hardAlpha"/>
<feOffset dy="-14"/>
<feGaussianBlur stdDeviation="12"/>
<feComposite in2="hardAlpha" operator="arithmetic" k2="-1" k3="1"/>
<feColorMatrix type="matrix" values="0 0 0 0 0.181559 0 0 0 0 0.0131412 0 0 0 0 0.0131412 0 0 0 0.4 0"/>
<feBlend mode="normal" in2="shape" result="effect1_innerShadow_432_1981"/>
</filter>
<linearGradient id="paint0_linear_432_1981" x1="20.9999" y1="4.19922" x2="20.9999" y2="37.8024" gradientUnits="userSpaceOnUse">
<stop stop-color="#DB1414"/>
<stop offset="1" stop-color="#851111"/>
</linearGradient>
</defs>
</svg>
