<svg width="42" height="42" viewBox="0 0 42 42" fill="none" xmlns="http://www.w3.org/2000/svg">
<path d="M28.5469 25.9219H33.7969V33.7969H28.5469V25.9219ZM8.20312 25.9219H13.4531V33.7969H8.20312V25.9219Z" fill="#F4F4F4"/>
<g filter="url(#filter0_i_432_1975)">
<path d="M21 5.25C12.3006 5.25 5.25 12.3006 5.25 21V35.7656C5.25 36.3111 5.68887 36.75 6.23438 36.75H13.7812C15.2291 36.75 16.4062 35.5729 16.4062 34.125V25.5938C16.4062 24.1459 15.2291 22.9688 13.7812 22.9688H8.20312V21C8.20312 13.933 13.933 8.20312 21 8.20312C28.067 8.20312 33.7969 13.933 33.7969 21V22.9688H28.2188C26.7709 22.9688 25.5938 24.1459 25.5938 25.5938V34.125C25.5938 35.5729 26.7709 36.75 28.2188 36.75H35.7656C36.3111 36.75 36.75 36.3111 36.75 35.7656V21C36.75 12.3006 29.6994 5.25 21 5.25ZM13.4531 25.9219V33.7969H8.20312V25.9219H13.4531ZM33.7969 33.7969H28.5469V25.9219H33.7969V33.7969Z" fill="url(#paint0_linear_432_1975)"/>
</g>
<path d="M8.00312 22.9688V23.1688H8.20312H13.7812C15.1186 23.1688 16.2063 24.2564 16.2063 25.5938V34.125C16.2063 35.4624 15.1186 36.55 13.7812 36.55H6.23438C5.79932 36.55 5.45 36.2007 5.45 35.7656V21C5.45 12.411 12.411 5.45 21 5.45C29.589 5.45 36.55 12.411 36.55 21V35.7656C36.55 36.2007 36.2007 36.55 35.7656 36.55H28.2188C26.8814 36.55 25.7938 35.4624 25.7938 34.125V25.5938C25.7938 24.2564 26.8814 23.1688 28.2188 23.1688H33.7969H33.9969V22.9688V21C33.9969 13.8226 28.1774 8.00312 21 8.00312C13.8226 8.00312 8.00312 13.8226 8.00312 21V22.9688ZM13.6531 25.9219V25.7219H13.4531H8.20312H8.00312V25.9219V33.7969V33.9969H8.20312H13.4531H13.6531V33.7969V25.9219ZM33.7969 33.9969H33.9969V33.7969V25.9219V25.7219H33.7969H28.5469H28.3469V25.9219V33.7969V33.9969H28.5469H33.7969Z" stroke="#D43D3D" stroke-width="0.4"/>
<defs>
<filter id="filter0_i_432_1975" x="5.25" y="-8.75" width="31.5" height="45.5" filterUnits="userSpaceOnUse" color-interpolation-filters="sRGB">
<feFlood flood-opacity="0" result="BackgroundImageFix"/>
<feBlend mode="normal" in="SourceGraphic" in2="BackgroundImageFix" result="shape"/>
<feColorMatrix in="SourceAlpha" type="matrix" values="0 0 0 0 0 0 0 0 0 0 0 0 0 0 0 0 0 0 127 0" result="hardAlpha"/>
<feOffset dy="-14"/>
<feGaussianBlur stdDeviation="12"/>
<feComposite in2="hardAlpha" operator="arithmetic" k2="-1" k3="1"/>
<feColorMatrix type="matrix" values="0 0 0 0 0.181559 0 0 0 0 0.0131412 0 0 0 0 0.0131412 0 0 0 0.4 0"/>
<feBlend mode="normal" in2="shape" result="effect1_innerShadow_432_1975"/>
</filter>
<linearGradient id="paint0_linear_432_1975" x1="21" y1="5.25" x2="21" y2="36.75" gradientUnits="userSpaceOnUse">
<stop stop-color="#DB1414"/>
<stop offset="1" stop-color="#851111"/>
</linearGradient>
</defs>
</svg>
