<svg width="82" height="82" viewBox="0 0 82 82" fill="none" xmlns="http://www.w3.org/2000/svg">
<path d="M51.2425 14.5942L51.9732 16.8433C52.2001 17.5277 52.5839 18.1494 53.0941 18.6588C53.6042 19.1682 54.2265 19.5512 54.9111 19.777L57.1602 20.5078L57.2043 20.5204C57.3778 20.5815 57.5281 20.6949 57.6343 20.845C57.7406 20.9951 57.7977 21.1744 57.7977 21.3583C57.7977 21.5422 57.7406 21.7216 57.6343 21.8717C57.5281 22.0218 57.3778 22.1352 57.2043 22.1962L54.9552 22.927C54.2706 23.1529 53.6483 23.5359 53.1382 24.0453C52.628 24.5547 52.2442 25.1764 52.0173 25.8607L51.2866 28.1077C51.2255 28.2812 51.1121 28.4314 50.962 28.5377C50.8119 28.644 50.6326 28.7011 50.4487 28.7011C50.2647 28.7011 50.0854 28.644 49.9353 28.5377C49.7852 28.4314 49.6718 28.2812 49.6108 28.1077L48.8778 25.8607C48.6528 25.1749 48.2702 24.5513 47.7607 24.04C47.2508 23.5278 46.6279 23.1422 45.9421 22.9144L43.6929 22.1836C43.5195 22.1226 43.3692 22.0092 43.263 21.8591C43.1567 21.709 43.0996 21.5296 43.0996 21.3457C43.0996 21.1618 43.1567 20.9825 43.263 20.8324C43.3692 20.6823 43.5195 20.5689 43.6929 20.5078L45.9421 19.777C46.6181 19.5451 47.2312 19.1594 47.733 18.6503C48.2347 18.1413 48.6115 17.5227 48.8337 16.8433L49.5646 14.5963C49.6252 14.4221 49.7385 14.2711 49.8888 14.1643C50.0392 14.0574 50.2191 14 50.4035 14C50.5879 14 50.7678 14.0574 50.9182 14.1643C51.0685 14.2711 51.1818 14.42 51.2425 14.5942ZM61.543 31.2514L59.9344 30.7306C59.4462 30.5675 59.0028 30.293 58.639 29.9289C58.2753 29.5647 58.0012 29.121 57.8386 28.6327L57.3135 27.0283C57.2701 26.9043 57.1891 26.7968 57.0819 26.7208C56.9747 26.6448 56.8465 26.6039 56.715 26.6039C56.5836 26.6039 56.4554 26.6448 56.3482 26.7208C56.241 26.7968 56.16 26.9043 56.1166 27.0283L55.5958 28.6327C55.436 29.1179 55.1665 29.5596 54.808 29.9235C54.4496 30.2874 54.012 30.5636 53.5294 30.7306L51.9228 31.2514C51.7998 31.2959 51.6934 31.3772 51.6182 31.4843C51.5429 31.5914 51.5026 31.7191 51.5026 31.8499C51.5026 31.9808 51.5429 32.1085 51.6182 32.2156C51.6934 32.3227 51.7998 32.404 51.9228 32.4484L53.5294 32.9713C54.0189 33.1346 54.4636 33.4098 54.8282 33.7751C55.1927 34.1404 55.4671 34.5856 55.6293 35.0755L56.1502 36.6799C56.1936 36.804 56.2746 36.9115 56.3818 36.9875C56.489 37.0635 56.6172 37.1044 56.7486 37.1044C56.8801 37.1044 57.0083 37.0635 57.1155 36.9875C57.2227 36.9115 57.3037 36.804 57.3471 36.6799L57.8701 35.0755C58.033 34.587 58.3073 34.1432 58.6715 33.779C59.0356 33.4149 59.4795 33.1405 59.968 32.9776L61.5745 32.4568C61.6975 32.4124 61.8039 32.3311 61.8792 32.224C61.9544 32.1169 61.9947 31.9892 61.9947 31.8583C61.9947 31.7275 61.9544 31.5998 61.8792 31.4927C61.8039 31.3856 61.6975 31.3043 61.5745 31.2598L61.543 31.2514Z" fill="#F4F4F4"/>
<g filter="url(#filter0_di_166_1834)">
<path d="M56.7543 39.2003C56.1956 39.1997 55.6499 39.0314 55.1877 38.7173C54.7257 38.3813 54.3897 37.9382 54.1797 37.4132L53.6337 35.729C53.5783 35.5518 53.4769 35.3923 53.3397 35.267C53.2092 35.1364 53.0514 35.036 52.8777 34.973L51.2775 34.448C50.7105 34.238 50.2485 33.8999 49.9125 33.4379C49.5765 32.9759 49.4085 32.4278 49.4085 31.8587C49.4085 31.8112 49.4097 31.7637 49.4121 31.7162C49.4394 31.1737 49.1576 30.5785 48.7155 30.2627C48.2159 29.8965 47.8353 29.391 47.6214 28.8095L46.8654 26.5163C46.6764 26.0333 46.4874 25.7603 46.2564 25.5293C45.9744 25.257 45.6371 25.0486 45.2673 24.9182L43.0392 24.1832C42.6132 24.0415 42.0501 24.3177 42.0501 24.7667V46.9539C42.0501 49.0372 42.9056 51.2609 44.947 51.6767C46.0231 51.896 47.138 51.8275 48.1792 51.4781C49.2204 51.1288 50.151 50.511 50.8771 49.6871C51.6032 48.8632 52.0992 47.8624 52.3149 46.7855C52.3621 46.5473 52.5474 46.3626 52.7816 46.2983C54.2647 45.8917 55.5713 44.9944 56.4841 43.7471C57.2719 42.6707 57.7225 41.3936 57.7921 40.0762C57.82 39.5475 57.2838 39.2075 56.7543 39.2003ZM39.9501 21.7171C39.9501 20.1173 39.1947 18.4444 37.6079 18.2407C36.7616 18.132 35.9015 18.2379 35.1068 18.5487C34.3121 18.8594 33.6083 19.3651 33.0602 20.0191C32.5121 20.673 32.1372 21.4544 31.9701 22.2911L31.8776 22.7552C31.7747 23.2714 31.3712 23.675 30.855 23.7779C29.5708 24.0355 28.4154 24.7298 27.5851 25.7427C26.7548 26.7556 26.3007 28.0248 26.3001 29.3345V29.7503C26.3001 29.7895 26.3006 29.8286 26.3014 29.8676C26.3461 31.9015 25.9706 34.7022 25.0088 36.4948C24.3388 37.7434 24.0744 39.1697 24.2522 40.5755C24.43 41.9814 25.0412 43.2969 26.0009 44.3394C26.871 45.2845 27.9884 45.9627 29.2226 46.2997C29.4545 46.363 29.6382 46.5456 29.6853 46.7813C29.9008 47.8583 30.3965 48.8594 31.1225 49.6836C31.8485 50.5077 32.7791 51.1258 33.8203 51.4753C34.8615 51.8249 35.9765 51.8936 37.0528 51.6745C39.0944 51.2589 39.9501 49.0349 39.9501 46.9514V21.7171Z" fill="url(#paint0_linear_166_1834)"/>
<path d="M52.3149 46.7855L51.8244 46.6885C51.9115 46.2484 52.2487 45.926 52.6494 45.8161C54.0238 45.4393 55.2347 44.6077 56.0807 43.4518C56.8107 42.4543 57.2283 41.2707 57.2928 40.0499C57.2964 39.9814 57.2709 39.9113 57.1765 39.8384C57.0747 39.7597 56.9171 39.7032 56.7502 39.7003C56.7493 39.7003 56.7484 39.7003 56.7476 39.7003L56.7543 39.2003L52.3149 46.7855ZM52.3149 46.7855L51.8247 46.6873C51.6262 47.6779 51.17 48.5986 50.502 49.3565C49.834 50.1144 48.978 50.6827 48.0202 51.0041C47.0624 51.3255 46.0368 51.3885 45.0468 51.1868C44.2027 51.0149 43.5885 50.4721 43.173 49.703C42.7527 48.9249 42.5501 47.9347 42.5501 46.9539V24.7667V24.7665C42.5501 24.7634 42.5501 24.7592 42.5573 24.7487C42.5666 24.7351 42.5879 24.7126 42.6272 24.6908C42.7134 24.6431 42.8161 24.636 42.8814 24.6577L42.8826 24.6581L45.1056 25.3914C45.4046 25.4975 45.6774 25.6661 45.906 25.886C46.0784 26.0591 46.2302 26.2686 46.395 26.6862L47.1466 28.9661L47.1492 28.9742L47.1522 28.9821C47.4 29.6559 47.841 30.2416 48.4199 30.666L48.4199 30.666L48.4249 30.6696C48.7255 30.8843 48.9316 31.3152 48.9127 31.6911C48.9099 31.7469 48.9085 31.8028 48.9085 31.8587C48.9085 32.5275 49.1066 33.1799 49.5082 33.732C49.9072 34.2807 50.4528 34.6758 51.1039 34.9169L51.1127 34.9202M52.3149 46.7855L51.1127 34.9202M51.1127 34.9202L51.1217 34.9231M51.1127 34.9202L51.1217 34.9231M51.1217 34.9231L52.7137 35.4454L51.1217 34.9231ZM37.5443 18.7366C38.1559 18.8151 38.6201 19.1719 38.9456 19.7131C39.2767 20.2635 39.4501 20.9881 39.4501 21.7171V46.9514C39.4501 47.9324 39.2475 48.9227 38.8272 49.7008C38.4116 50.4699 37.7973 51.0127 36.9531 51.1845C35.963 51.3861 34.9373 51.3229 33.9795 51.0013C33.0216 50.6798 32.1656 50.1112 31.4977 49.3531C30.8299 48.5949 30.3738 47.674 30.1756 46.6833C30.0882 46.2461 29.7528 45.9261 29.3543 45.8173C28.2106 45.5051 27.1751 44.8766 26.3688 44.0008C25.4794 43.0347 24.913 41.8156 24.7482 40.5128C24.5834 39.21 24.8285 37.8883 25.4494 36.7312C26.4693 34.8303 26.8468 31.9306 26.8013 29.8567C26.8005 29.8213 26.8001 29.7859 26.8001 29.7503V29.3348C26.8001 29.3347 26.8001 29.3346 26.8001 29.3345C26.8007 28.1404 27.2147 26.9832 27.9718 26.0597C28.7289 25.1361 29.7823 24.5031 30.9531 24.2682C31.6673 24.1256 32.2256 23.5673 32.368 22.853L32.4605 22.3891C32.6111 21.6345 32.9491 20.93 33.4434 20.3402C33.9377 19.7505 34.5723 19.2946 35.2889 19.0143C36.0055 18.7341 36.7811 18.6386 37.5443 18.7366Z" stroke="#D43D3D"/>
</g>
<defs>
<filter id="filter0_di_166_1834" x="0.198242" y="0.199219" width="81.5947" height="81.6035" filterUnits="userSpaceOnUse" color-interpolation-filters="sRGB">
<feFlood flood-opacity="0" result="BackgroundImageFix"/>
<feColorMatrix in="SourceAlpha" type="matrix" values="0 0 0 0 0 0 0 0 0 0 0 0 0 0 0 0 0 0 127 0" result="hardAlpha"/>
<feMorphology radius="6" operator="dilate" in="SourceAlpha" result="effect1_dropShadow_166_1834"/>
<feOffset dy="6"/>
<feGaussianBlur stdDeviation="9"/>
<feComposite in2="hardAlpha" operator="out"/>
<feColorMatrix type="matrix" values="0 0 0 0 1 0 0 0 0 0.201961 0 0 0 0 0.129412 0 0 0 0.3 0"/>
<feBlend mode="normal" in2="BackgroundImageFix" result="effect1_dropShadow_166_1834"/>
<feBlend mode="normal" in="SourceGraphic" in2="effect1_dropShadow_166_1834" result="shape"/>
<feColorMatrix in="SourceAlpha" type="matrix" values="0 0 0 0 0 0 0 0 0 0 0 0 0 0 0 0 0 0 127 0" result="hardAlpha"/>
<feOffset dy="-14"/>
<feGaussianBlur stdDeviation="12"/>
<feComposite in2="hardAlpha" operator="arithmetic" k2="-1" k3="1"/>
<feColorMatrix type="matrix" values="0 0 0 0 0.181559 0 0 0 0 0.0131412 0 0 0 0 0.0131412 0 0 0 0.4 0"/>
<feBlend mode="normal" in2="shape" result="effect2_innerShadow_166_1834"/>
</filter>
<linearGradient id="paint0_linear_166_1834" x1="40.9999" y1="18.1992" x2="40.9999" y2="51.8024" gradientUnits="userSpaceOnUse">
<stop stop-color="#DB1414"/>
<stop offset="1" stop-color="#851111"/>
</linearGradient>
</defs>
</svg>
