<svg width="42" height="42" viewBox="0 0 42 42" fill="none" xmlns="http://www.w3.org/2000/svg">
<g filter="url(#filter0_i_432_1978)">
<path d="M9.26259 18.7374C8.9344 19.0656 8.75003 19.5107 8.75003 19.9749V22.75C8.75003 24.991 7.85979 27.1402 6.27516 28.7249L4.74253 30.2575C4.41659 30.5854 4.23364 31.0289 4.23364 31.4913C4.23364 31.9536 4.41659 32.3971 4.74253 32.725L9.25753 37.2575C9.42022 37.4215 9.61377 37.5517 9.82702 37.6406C10.0403 37.7294 10.269 37.7751 10.5 37.7751C10.7311 37.7751 10.9598 37.7294 11.173 37.6406C11.3863 37.5517 11.5798 37.4215 11.7425 37.2575L15.7353 33.2647C17.9857 31.0143 21.038 29.75 24.2206 29.75H26.25C26.7142 29.75 27.1593 29.5656 27.4875 29.2374C27.8157 28.9093 28 28.4641 28 28C28 27.0335 28.7835 26.25 29.75 26.25C30.2142 26.25 30.6593 26.0656 30.9875 25.7374C31.3157 25.4092 31.5 24.9641 31.5 24.5C31.5 23.5335 32.2835 22.75 33.25 22.75C33.7142 22.75 34.1593 22.5656 34.4875 22.2374C34.8157 21.9092 35 21.4641 35 21C35 20.0335 34.2165 19.25 33.25 19.25H24.5C23.5335 19.25 22.75 20.0335 22.75 21C22.75 21.9283 22.3813 22.8185 21.7249 23.4749C21.0685 24.1313 20.1783 24.5 19.25 24.5H15.75C14.8218 24.5 13.9315 24.1313 13.2752 23.4749C12.6188 22.8185 12.25 21.9283 12.25 21V19.9749C12.25 18.4158 10.365 17.635 9.26259 18.7374Z" fill="url(#paint0_linear_432_1978)"/>
</g>
<path d="M9.61177 36.9046L9.61253 36.9054C9.72874 37.0226 9.86699 37.1156 10.0193 37.179C10.1716 37.2425 10.335 37.2751 10.5 37.2751C10.665 37.2751 10.8284 37.2425 10.9808 37.179C11.1331 37.1156 11.2713 37.0226 11.3875 36.9054L11.389 36.9039L15.3818 32.9112C17.726 30.567 20.9054 29.25 24.2206 29.25H26.25C26.5816 29.25 26.8995 29.1183 27.1339 28.8839C27.3683 28.6495 27.5 28.3315 27.5 28C27.5 26.7574 28.5074 25.75 29.75 25.75C30.0815 25.75 30.3995 25.6183 30.6339 25.3839C30.8683 25.1495 31 24.8315 31 24.5C31 23.2574 32.0074 22.25 33.25 22.25C33.5816 22.25 33.8995 22.1183 34.1339 21.8839C34.3683 21.6495 34.5 21.3315 34.5 21C34.5 20.3096 33.9404 19.75 33.25 19.75H24.5C23.8097 19.75 23.25 20.3096 23.25 21C23.25 22.0609 22.8286 23.0783 22.0785 23.8284C21.3283 24.5786 20.3109 25 19.25 25H15.75C14.6892 25 13.6717 24.5786 12.9216 23.8284C12.1715 23.0783 11.75 22.0609 11.75 21V19.9749C11.75 18.8612 10.4036 18.3035 9.61615 19.091C9.38173 19.3254 9.25003 19.6434 9.25003 19.9749V22.75C9.25003 25.1236 8.30711 27.4 6.62871 29.0784L5.09713 30.61C5.09697 30.6102 5.0968 30.6103 5.09663 30.6105C4.86413 30.8447 4.73364 31.1613 4.73364 31.4913C4.73364 31.8213 4.86418 32.138 5.09677 32.3721L9.61177 36.9046ZM9.61177 36.9046L5.09713 32.3725L9.61177 36.9046Z" stroke="#D43D3D"/>
<g filter="url(#filter1_i_432_1978)">
<path d="M19.5188 10.4997H19.25C18.3217 10.4997 17.4315 10.8684 16.7751 11.5248C16.1187 12.1812 15.75 13.0714 15.75 13.9997V19.2497C15.75 19.7138 15.9344 20.1589 16.2626 20.4871C16.5908 20.8153 17.0359 20.9997 17.5 20.9997C17.9641 20.9997 18.4092 20.8153 18.7374 20.4871C19.0656 20.1589 19.25 19.7138 19.25 19.2497C19.25 17.3167 20.817 15.7497 22.75 15.7497H29.1406C31.7712 15.7497 34.2934 14.7017 36.1495 12.8375L37.2575 11.7247C37.5834 11.3968 37.7664 10.9533 37.7664 10.4909C37.7664 10.0286 37.5834 9.58506 37.2575 9.25718L32.7425 4.72468C32.5798 4.56065 32.3863 4.43046 32.173 4.34162C31.9598 4.25277 31.731 4.20703 31.5 4.20703C31.269 4.20703 31.0402 4.25277 30.827 4.34162C30.6137 4.43046 30.4202 4.56065 30.2575 4.72468L28.0169 6.97207C25.7654 9.23039 22.7077 10.4997 19.5188 10.4997Z" fill="#F4F4F4"/>
</g>
<path d="M32.3165 5.1472L32.3174 5.14812L36.832 9.68018C36.8321 9.68027 36.8322 9.68036 36.8323 9.68046C37.0463 9.89589 37.1664 10.1872 37.1664 10.4909C37.1664 10.7947 37.0462 11.0862 36.832 11.3017L35.7243 12.4142C33.9808 14.1653 31.6116 15.1497 29.1406 15.1497H22.75C20.4856 15.1497 18.65 16.9853 18.65 19.2497C18.65 19.5547 18.5288 19.8472 18.3132 20.0629C18.0975 20.2785 17.805 20.3997 17.5 20.3997C17.195 20.3997 16.9025 20.2785 16.6868 20.0629C16.4712 19.8472 16.35 19.5547 16.35 19.2497V13.9997C16.35 13.2306 16.6555 12.4929 17.1994 11.9491C17.7432 11.4052 18.4809 11.0997 19.25 11.0997H19.5188C22.8671 11.0997 26.0778 9.76693 28.4418 7.39569L30.6824 5.1483L30.6835 5.1472C30.7904 5.03941 30.9176 4.95386 31.0577 4.89547C31.1979 4.83709 31.3482 4.80703 31.5 4.80703C31.6518 4.80703 31.8021 4.83709 31.9423 4.89547C32.0824 4.95386 32.2096 5.03941 32.3165 5.1472Z" stroke="#E0E0E0" stroke-width="1.2"/>
<defs>
<filter id="filter0_i_432_1978" x="4.23364" y="4.22168" width="30.7664" height="33.5537" filterUnits="userSpaceOnUse" color-interpolation-filters="sRGB">
<feFlood flood-opacity="0" result="BackgroundImageFix"/>
<feBlend mode="normal" in="SourceGraphic" in2="BackgroundImageFix" result="shape"/>
<feColorMatrix in="SourceAlpha" type="matrix" values="0 0 0 0 0 0 0 0 0 0 0 0 0 0 0 0 0 0 127 0" result="hardAlpha"/>
<feOffset dy="-14"/>
<feGaussianBlur stdDeviation="12"/>
<feComposite in2="hardAlpha" operator="arithmetic" k2="-1" k3="1"/>
<feColorMatrix type="matrix" values="0 0 0 0 0.181559 0 0 0 0 0.0131412 0 0 0 0 0.0131412 0 0 0 0.4 0"/>
<feBlend mode="normal" in2="shape" result="effect1_innerShadow_432_1978"/>
</filter>
<filter id="filter1_i_432_1978" x="15.75" y="-10.193" width="22.0164" height="31.193" filterUnits="userSpaceOnUse" color-interpolation-filters="sRGB">
<feFlood flood-opacity="0" result="BackgroundImageFix"/>
<feBlend mode="normal" in="SourceGraphic" in2="BackgroundImageFix" result="shape"/>
<feColorMatrix in="SourceAlpha" type="matrix" values="0 0 0 0 0 0 0 0 0 0 0 0 0 0 0 0 0 0 127 0" result="hardAlpha"/>
<feOffset dy="-14.4"/>
<feGaussianBlur stdDeviation="12"/>
<feComposite in2="hardAlpha" operator="arithmetic" k2="-1" k3="1"/>
<feColorMatrix type="matrix" values="0 0 0 0 1 0 0 0 0 1 0 0 0 0 1 0 0 0 0.4 0"/>
<feBlend mode="normal" in2="shape" result="effect1_innerShadow_432_1978"/>
</filter>
<linearGradient id="paint0_linear_432_1978" x1="19.6168" y1="15.75" x2="19.6168" y2="37.7751" gradientUnits="userSpaceOnUse">
<stop stop-color="#DB1414"/>
<stop offset="1" stop-color="#851111"/>
</linearGradient>
</defs>
</svg>
